<?xml version="1.0"?>
<!-- Generated by SVGo -->
<svg width="241.602mm" height="97.202mm"
     viewBox="0.000 0.000 241.602 97.202"
     xmlns="http://www.w3.org/2000/svg" 
     xmlns:xlink="http://www.w3.org/1999/xlink">
<polygon points="180.102,5.001 180.337,5.009 180.571,5.037 180.802,5.083 181.029,5.147 181.250,5.229 181.463,5.327 181.669,5.443 181.865,5.573 182.050,5.719 182.223,5.879 182.383,6.052 182.529,6.237 182.659,6.433 182.775,6.639 182.873,6.852 182.955,7.073 183.019,7.300 183.065,7.531 183.092,7.765 183.102,8.001 183.102,9.001 234.602,9.001 234.758,9.007 234.914,9.025 235.068,9.056 235.220,9.098 235.367,9.153 235.509,9.218 235.646,9.295 235.777,9.382 235.900,9.480 236.016,9.586 236.122,9.702 236.220,9.825 236.307,9.956 236.384,10.093 236.449,10.235 236.504,10.382 236.546,10.534 236.577,10.688 236.595,10.844 236.602,11.001 236.602,86.202 236.595,86.358 236.577,86.514 236.546,86.668 236.504,86.820 236.449,86.967 236.384,87.109 236.307,87.246 236.220,87.377 236.122,87.500 236.016,87.616 235.900,87.722 235.777,87.820 235.646,87.907 235.509,87.984 235.367,88.049 235.220,88.104 235.068,88.146 234.914,88.177 234.758,88.195 234.602,88.201 183.102,88.201 183.102,89.202 183.092,89.437 183.065,89.671 183.019,89.902 182.955,90.129 182.873,90.350 182.775,90.563 182.659,90.769 182.529,90.965 182.383,91.150 182.223,91.323 182.050,91.483 181.865,91.629 181.669,91.759 181.463,91.875 181.250,91.973 181.029,92.055 180.802,92.119 180.571,92.165 180.337,92.192 180.102,92.202 176.102,92.202 175.866,92.192 175.632,92.165 175.401,92.119 175.174,92.055 174.953,91.973 174.740,91.875 174.534,91.759 174.338,91.629 174.153,91.483 173.980,91.323 173.820,91.150 173.674,90.965 173.544,90.769 173.428,90.563 173.330,90.350 173.248,90.129 173.184,89.902 173.138,89.671 173.111,89.437 173.102,89.201 173.102,88.201 68.501,88.202 68.501,89.202 68.491,89.437 68.464,89.671 68.418,89.902 68.354,90.129 68.272,90.350 68.174,90.563 68.058,90.769 67.928,90.965 67.782,91.150 67.622,91.323 67.449,91.483 67.264,91.629 67.068,91.759 66.862,91.875 66.649,91.973 66.428,92.055 66.201,92.119 65.970,92.165 65.736,92.192 65.499,92.202 61.501,92.202 61.265,92.192 61.031,92.165 60.800,92.119 60.573,92.055 60.352,91.973 60.139,91.875 59.933,91.759 59.737,91.629 59.552,91.483 59.379,91.323 59.219,91.150 59.073,90.965 58.943,90.769 58.827,90.563 58.729,90.350 58.647,90.129 58.583,89.902 58.537,89.671 58.510,89.437 58.501,89.201 58.501,88.202 7.001,88.202 6.844,88.195 6.688,88.177 6.534,88.146 6.382,88.104 6.235,88.049 6.093,87.984 5.956,87.907 5.825,87.820 5.702,87.722 5.586,87.616 5.480,87.500 5.382,87.377 5.295,87.246 5.218,87.109 5.153,86.967 5.098,86.820 5.056,86.668 5.025,86.514 5.007,86.358 5.000,86.202 5.001,11.001 5.007,10.844 5.025,10.688 5.056,10.534 5.098,10.382 5.153,10.235 5.218,10.093 5.295,9.956 5.382,9.825 5.480,9.702 5.586,9.586 5.702,9.480 5.825,9.382 5.956,9.295 6.093,9.218 6.235,9.153 6.382,9.098 6.534,9.056 6.688,9.025 6.844,9.007 7.001,9.000 58.501,9.000 58.501,8.001 58.510,7.765 58.537,7.531 58.583,7.300 58.647,7.073 58.729,6.852 58.827,6.639 58.943,6.433 59.073,6.237 59.219,6.052 59.379,5.879 59.552,5.719 59.737,5.573 59.933,5.443 60.139,5.327 60.352,5.229 60.573,5.147 60.800,5.083 61.031,5.037 61.265,5.009 61.501,5.000 65.501,5.001 65.736,5.009 65.970,5.037 66.201,5.083 66.428,5.147 66.649,5.229 66.862,5.327 67.068,5.443 67.264,5.573 67.449,5.719 67.622,5.879 67.782,6.052 67.928,6.237 68.058,6.433 68.174,6.639 68.272,6.852 68.354,7.073 68.418,7.300 68.464,7.531 68.491,7.765 68.501,8.001 68.501,9.000 173.102,9.001 173.102,8.001 173.111,7.765 173.138,7.531 173.184,7.300 173.248,7.073 173.330,6.852 173.428,6.639 173.544,6.433 173.674,6.237 173.820,6.052 173.980,5.879 174.153,5.719 174.338,5.573 174.534,5.443 174.740,5.327 174.953,5.229 175.174,5.147 175.401,5.083 175.632,5.037 175.866,5.009 176.102,5.000" style="fill:none;stroke-width:0.050000mm;stroke:black"/>
<polygon points="63.344,87.208 63.188,87.226 63.034,87.257 62.882,87.299 62.735,87.354 62.593,87.419 62.456,87.496 62.325,87.583 62.202,87.681 62.086,87.787 61.980,87.903 61.882,88.026 61.795,88.157 61.718,88.294 61.653,88.436 61.598,88.583 61.556,88.735 61.525,88.889 61.507,89.045 61.500,89.201 61.507,89.358 61.525,89.514 61.556,89.668 61.598,89.820 61.653,89.967 61.718,90.109 61.795,90.246 61.882,90.377 61.980,90.500 62.086,90.616 62.202,90.722 62.325,90.820 62.456,90.907 62.593,90.984 62.735,91.049 62.882,91.104 63.034,91.146 63.188,91.177 63.344,91.195 63.501,91.201 63.657,91.195 63.813,91.177 63.967,91.146 64.118,91.104 64.266,91.049 64.408,90.984 64.545,90.907 64.676,90.820 64.799,90.722 64.915,90.616 65.020,90.500 65.118,90.377 65.206,90.246 65.283,90.109 65.347,89.967 65.403,89.820 65.445,89.668 65.475,89.514 65.493,89.358 65.499,89.201 65.493,89.045 65.475,88.889 65.445,88.735 65.403,88.583 65.347,88.436 65.283,88.294 65.206,88.157 65.118,88.026 65.020,87.903 64.915,87.787 64.799,87.681 64.676,87.583 64.545,87.496 64.408,87.419 64.266,87.354 64.118,87.299 63.967,87.257 63.813,87.226 63.657,87.208 63.501,87.202" style="fill:none;stroke-width:0.050000mm;stroke:black"/>
<polygon points="177.945,87.208 177.789,87.226 177.635,87.257 177.483,87.299 177.336,87.354 177.194,87.419 177.057,87.496 176.926,87.583 176.803,87.681 176.687,87.787 176.581,87.903 176.483,88.026 176.396,88.157 176.319,88.294 176.254,88.436 176.199,88.583 176.157,88.735 176.126,88.889 176.108,89.045 176.102,89.201 176.108,89.358 176.126,89.514 176.157,89.668 176.199,89.820 176.254,89.967 176.319,90.109 176.396,90.246 176.483,90.377 176.581,90.500 176.687,90.616 176.803,90.722 176.926,90.820 177.057,90.907 177.194,90.984 177.336,91.049 177.483,91.104 177.635,91.146 177.789,91.177 177.945,91.195 178.102,91.201 178.258,91.195 178.414,91.177 178.568,91.146 178.720,91.104 178.867,91.049 179.009,90.984 179.146,90.907 179.277,90.820 179.400,90.722 179.516,90.616 179.622,90.500 179.720,90.377 179.807,90.246 179.884,90.109 179.949,89.967 180.004,89.820 180.046,89.668 180.077,89.514 180.095,89.358 180.102,89.201 180.095,89.045 180.077,88.889 180.046,88.735 180.004,88.583 179.949,88.436 179.884,88.294 179.807,88.157 179.720,88.026 179.622,87.903 179.516,87.787 179.400,87.681 179.277,87.583 179.146,87.496 179.009,87.419 178.867,87.354 178.720,87.299 178.568,87.257 178.414,87.226 178.258,87.208 178.102,87.202" style="fill:none;stroke-width:0.050000mm;stroke:black"/>
<polygon points="176.294,69.204 176.294,70.176 173.332,70.176 173.332,74.875 157.507,74.875 157.507,70.406 155.782,70.406 155.782,69.206 152.482,69.206 152.482,70.406 150.757,70.406 150.757,74.875 149.232,74.875 149.232,70.176 131.982,70.176 131.982,69.206 128.682,69.206 128.682,70.176 120.944,70.176 120.944,74.876 109.882,74.876 109.882,70.406 108.157,70.406 108.157,69.206 104.857,69.206 104.857,70.406 103.132,70.406 103.132,74.876 101.607,74.876 101.607,70.176 87.607,70.176 87.607,74.876 86.082,74.876 86.082,70.406 84.357,70.406 84.357,69.206 81.057,69.206 81.057,70.406 79.594,70.406 79.594,69.206 76.294,69.206 76.294,70.406 74.569,70.406 74.569,74.876 73.744,74.876 73.744,79.476 74.569,79.476 74.569,83.946 76.294,83.946 76.294,85.146 79.594,85.146 79.594,83.946 81.057,83.946 81.057,85.146 84.357,85.146 84.357,83.946 86.082,83.946 86.082,79.476 87.607,79.476 87.607,84.176 101.607,84.176 101.607,79.476 103.132,79.476 103.132,83.946 104.857,83.946 104.857,85.146 108.157,85.146 108.157,83.946 109.882,83.946 109.882,79.476 120.944,79.476 120.944,84.176 128.682,84.176 128.682,85.146 131.982,85.146 131.982,84.176 149.232,84.176 149.232,79.476 150.757,79.476 150.757,83.946 152.482,83.946 152.482,85.146 155.782,85.146 155.782,83.946 157.507,83.946 157.507,79.476 173.332,79.476 173.332,84.176 176.294,84.176 176.294,85.146 179.594,85.146 179.594,84.176 187.332,84.176 187.332,70.176 179.594,70.176 179.594,69.204" style="fill:none;stroke-width:0.050000mm;stroke:black"/>
<polygon points="11.407,70.176 11.407,84.176 25.407,84.176 25.407,70.176" style="fill:none;stroke-width:0.050000mm;stroke:black"/>
<polygon points="32.838,70.176 32.838,84.176 46.838,84.176 46.838,70.176" style="fill:none;stroke-width:0.050000mm;stroke:black"/>
<polygon points="51.888,70.176 51.888,84.176 68.269,84.176 68.269,70.176" style="fill:none;stroke-width:0.050000mm;stroke:black"/>
<polygon points="192.382,70.176 192.382,84.176 208.763,84.176 208.763,70.176" style="fill:none;stroke-width:0.050000mm;stroke:black"/>
<polygon points="216.194,70.176 216.194,84.176 230.194,84.176 230.194,70.176" style="fill:none;stroke-width:0.050000mm;stroke:black"/>
<polygon points="16.169,51.126 16.169,65.126 30.169,65.126 30.169,51.126" style="fill:none;stroke-width:0.050000mm;stroke:black"/>
<polygon points="42.363,51.126 42.363,65.126 56.363,65.126 56.363,51.126" style="fill:none;stroke-width:0.050000mm;stroke:black"/>
<polygon points="61.413,51.126 61.413,65.126 75.413,65.126 75.413,51.126" style="fill:none;stroke-width:0.050000mm;stroke:black"/>
<polygon points="80.463,51.126 80.463,65.126 94.463,65.126 94.463,51.126" style="fill:none;stroke-width:0.050000mm;stroke:black"/>
<polygon points="99.513,51.126 99.513,65.126 113.513,65.126 113.513,51.126" style="fill:none;stroke-width:0.050000mm;stroke:black"/>
<polygon points="118.563,51.126 118.563,65.126 132.563,65.126 132.563,51.126" style="fill:none;stroke-width:0.050000mm;stroke:black"/>
<polygon points="137.613,51.126 137.613,65.126 151.613,65.126 151.613,51.126" style="fill:none;stroke-width:0.050000mm;stroke:black"/>
<polygon points="156.663,51.126 156.663,65.126 170.663,65.126 170.663,51.126" style="fill:none;stroke-width:0.050000mm;stroke:black"/>
<polygon points="175.713,51.126 175.713,65.126 189.713,65.126 189.713,51.126" style="fill:none;stroke-width:0.050000mm;stroke:black"/>
<polygon points="194.763,51.126 194.763,65.126 211.144,65.126 211.144,51.126" style="fill:none;stroke-width:0.050000mm;stroke:black"/>
<polygon points="216.194,51.126 216.194,65.126 232.576,65.126 232.576,51.126" style="fill:none;stroke-width:0.050000mm;stroke:black"/>
<polygon points="11.407,32.076 11.407,46.076 25.407,46.076 25.407,32.076" style="fill:none;stroke-width:0.050000mm;stroke:black"/>
<polygon points="32.838,32.076 32.838,46.076 46.838,46.076 46.838,32.076" style="fill:none;stroke-width:0.050000mm;stroke:black"/>
<polygon points="51.888,32.076 51.888,46.076 65.888,46.076 65.888,32.076" style="fill:none;stroke-width:0.050000mm;stroke:black"/>
<polygon points="70.938,32.076 70.938,46.076 84.938,46.076 84.938,32.076" style="fill:none;stroke-width:0.050000mm;stroke:black"/>
<polygon points="89.988,32.076 89.988,46.076 103.988,46.076 103.988,32.076" style="fill:none;stroke-width:0.050000mm;stroke:black"/>
<polygon points="109.038,32.076 109.038,46.076 123.038,46.076 123.038,32.076" style="fill:none;stroke-width:0.050000mm;stroke:black"/>
<polygon points="128.087,32.076 128.087,46.076 142.088,46.076 142.088,32.076" style="fill:none;stroke-width:0.050000mm;stroke:black"/>
<polygon points="147.138,32.076 147.138,46.076 161.138,46.076 161.138,32.076" style="fill:none;stroke-width:0.050000mm;stroke:black"/>
<polygon points="166.188,32.076 166.188,46.076 180.188,46.076 180.188,32.076" style="fill:none;stroke-width:0.050000mm;stroke:black"/>
<polygon points="185.238,32.076 185.238,46.076 199.238,46.076 199.238,32.076" style="fill:none;stroke-width:0.050000mm;stroke:black"/>
<polygon points="211.432,32.076 211.432,46.076 225.432,46.076 225.432,32.076" style="fill:none;stroke-width:0.050000mm;stroke:black"/>
<polygon points="9.025,13.025 9.025,27.026 23.026,27.026 23.026,13.025" style="fill:none;stroke-width:0.050000mm;stroke:black"/>
<polygon points="28.076,13.025 28.076,27.026 42.076,27.026 42.076,13.025" style="fill:none;stroke-width:0.050000mm;stroke:black"/>
<polygon points="47.126,13.025 47.126,27.026 61.126,27.026 61.126,13.025" style="fill:none;stroke-width:0.050000mm;stroke:black"/>
<polygon points="66.176,13.025 66.176,27.026 80.176,27.026 80.176,13.025" style="fill:none;stroke-width:0.050000mm;stroke:black"/>
<polygon points="85.226,13.025 85.226,27.026 99.226,27.026 99.226,13.025" style="fill:none;stroke-width:0.050000mm;stroke:black"/>
<polygon points="104.275,13.025 104.275,27.026 118.275,27.026 118.275,13.025" style="fill:none;stroke-width:0.050000mm;stroke:black"/>
<polygon points="123.325,13.025 123.325,27.026 137.326,27.026 137.326,13.025" style="fill:none;stroke-width:0.050000mm;stroke:black"/>
<polygon points="142.376,13.025 142.376,27.026 156.376,27.026 156.376,13.025" style="fill:none;stroke-width:0.050000mm;stroke:black"/>
<polygon points="161.426,13.025 161.426,27.026 175.426,27.026 175.426,13.025" style="fill:none;stroke-width:0.050000mm;stroke:black"/>
<polygon points="180.476,13.025 180.476,27.026 194.476,27.026 194.476,13.025" style="fill:none;stroke-width:0.050000mm;stroke:black"/>
<polygon points="199.526,13.025 199.526,27.026 213.526,27.026 213.526,13.025" style="fill:none;stroke-width:0.050000mm;stroke:black"/>
<polygon points="218.576,13.025 218.576,27.026 232.576,27.026 232.576,13.025" style="fill:none;stroke-width:0.050000mm;stroke:black"/>
<polygon points="63.344,6.006 63.188,6.025 63.034,6.056 62.882,6.098 62.735,6.153 62.593,6.218 62.456,6.295 62.325,6.382 62.202,6.480 62.086,6.586 61.980,6.702 61.882,6.825 61.795,6.956 61.718,7.093 61.653,7.235 61.598,7.382 61.556,7.534 61.525,7.688 61.507,7.844 61.500,8.001 61.507,8.157 61.525,8.313 61.556,8.467 61.598,8.619 61.653,8.766 61.718,8.908 61.795,9.045 61.882,9.176 61.980,9.299 62.086,9.415 62.202,9.521 62.325,9.619 62.456,9.706 62.593,9.783 62.735,9.848 62.882,9.903 63.034,9.945 63.188,9.976 63.344,9.994 63.501,10.001 63.657,9.994 63.813,9.976 63.967,9.945 64.118,9.903 64.266,9.848 64.408,9.783 64.545,9.706 64.676,9.619 64.799,9.521 64.915,9.415 65.020,9.299 65.118,9.176 65.206,9.045 65.283,8.908 65.347,8.766 65.403,8.619 65.445,8.467 65.475,8.313 65.493,8.157 65.499,8.001 65.493,7.844 65.475,7.688 65.445,7.534 65.403,7.382 65.347,7.235 65.283,7.093 65.206,6.956 65.118,6.825 65.020,6.702 64.915,6.586 64.799,6.480 64.676,6.382 64.545,6.295 64.408,6.218 64.266,6.153 64.118,6.098 63.967,6.056 63.813,6.025 63.657,6.006 63.501,6.001" style="fill:none;stroke-width:0.050000mm;stroke:black"/>
<polygon points="177.945,6.006 177.789,6.025 177.635,6.056 177.483,6.098 177.336,6.153 177.194,6.218 177.057,6.295 176.926,6.382 176.803,6.480 176.687,6.586 176.581,6.702 176.483,6.825 176.396,6.956 176.319,7.093 176.254,7.235 176.199,7.382 176.157,7.534 176.126,7.688 176.108,7.844 176.102,8.001 176.108,8.157 176.126,8.313 176.157,8.467 176.199,8.619 176.254,8.766 176.319,8.908 176.396,9.045 176.483,9.176 176.581,9.299 176.687,9.415 176.803,9.521 176.926,9.619 177.057,9.706 177.194,9.783 177.336,9.848 177.483,9.903 177.635,9.945 177.789,9.976 177.945,9.994 178.102,10.001 178.258,9.994 178.414,9.976 178.568,9.945 178.720,9.903 178.867,9.848 179.009,9.783 179.146,9.706 179.277,9.619 179.400,9.521 179.516,9.415 179.622,9.299 179.720,9.176 179.807,9.045 179.884,8.908 179.949,8.766 180.004,8.619 180.046,8.467 180.077,8.313 180.095,8.157 180.102,8.001 180.095,7.844 180.077,7.688 180.046,7.534 180.004,7.382 179.949,7.235 179.884,7.093 179.807,6.956 179.720,6.825 179.622,6.702 179.516,6.586 179.400,6.480 179.277,6.382 179.146,6.295 179.009,6.218 178.867,6.153 178.720,6.098 178.568,6.056 178.414,6.025 178.258,6.006 178.102,6.001" style="fill:none;stroke-width:0.050000mm;stroke:black"/>
</svg>
