  0
SECTION
  2
HEADER
  9
$ACADVER
  1
AC1009
  9
$EXTMIN
 10
0.0
 20
0.0
 30
0.0
  9
$EXTMAX
 10
1000.0
 20
1000.0
 30
0.0
  9
$FILLMODE
 70
 0
  9
$SPLFRAME
 70
 1
  0
ENDSEC
  0
SECTION
  2
TABLES
  0
TABLE
  2
LAYER
 70
1
  0
LAYER
  2
0
 70
     0
 62
     7
  6
CONTINUOUS
  0
ENDTAB
  0
ENDSEC
  0
SECTION
  2
ENTITIES
  0
LINE
  8
0
 62
     0
 10
175.195
 20
87.2793
 30
0.0
 11
175.431
 21
87.2712
 31
0.0
  0
LINE
  8
0
 62
     0
 10
175.431
 20
87.2712
 30
0.0
 11
175.665
 21
87.2437
 31
0.0
  0
LINE
  8
0
 62
     0
 10
175.665
 20
87.2437
 30
0.0
 11
175.896
 21
87.1982
 31
0.0
  0
LINE
  8
0
 62
     0
 10
175.896
 20
87.1982
 30
0.0
 11
176.123
 21
87.1333
 31
0.0
  0
LINE
  8
0
 62
     0
 10
176.123
 20
87.1333
 30
0.0
 11
176.343
 21
87.0521
 31
0.0
  0
LINE
  8
0
 62
     0
 10
176.343
 20
87.0521
 30
0.0
 11
176.557
 21
86.9541
 31
0.0
  0
LINE
  8
0
 62
     0
 10
176.557
 20
86.9541
 30
0.0
 11
176.762
 21
86.837
 31
0.0
  0
LINE
  8
0
 62
     0
 10
176.762
 20
86.837
 30
0.0
 11
176.959
 21
86.7075
 31
0.0
  0
LINE
  8
0
 62
     0
 10
176.959
 20
86.7075
 30
0.0
 11
177.144
 21
86.5614
 31
0.0
  0
LINE
  8
0
 62
     0
 10
177.144
 20
86.5614
 30
0.0
 11
177.316
 21
86.4016
 31
0.0
  0
LINE
  8
0
 62
     0
 10
177.316
 20
86.4016
 30
0.0
 11
177.476
 21
86.2295
 31
0.0
  0
LINE
  8
0
 62
     0
 10
177.476
 20
86.2295
 30
0.0
 11
177.622
 21
86.0432
 31
0.0
  0
LINE
  8
0
 62
     0
 10
177.622
 20
86.0432
 30
0.0
 11
177.753
 21
85.8478
 31
0.0
  0
LINE
  8
0
 62
     0
 10
177.753
 20
85.8478
 30
0.0
 11
177.869
 21
85.6425
 31
0.0
  0
LINE
  8
0
 62
     0
 10
177.869
 20
85.6425
 30
0.0
 11
177.967
 21
85.4287
 31
0.0
  0
LINE
  8
0
 62
     0
 10
177.967
 20
85.4287
 30
0.0
 11
178.049
 21
85.2082
 31
0.0
  0
LINE
  8
0
 62
     0
 10
178.049
 20
85.2082
 30
0.0
 11
178.113
 21
84.981
 31
0.0
  0
LINE
  8
0
 62
     0
 10
178.113
 20
84.981
 30
0.0
 11
178.158
 21
84.7492
 31
0.0
  0
LINE
  8
0
 62
     0
 10
178.158
 20
84.7492
 30
0.0
 11
178.186
 21
84.515
 31
0.0
  0
LINE
  8
0
 62
     0
 10
178.186
 20
84.515
 30
0.0
 11
178.195
 21
84.2793
 31
0.0
  0
LINE
  8
0
 62
     0
 10
178.195
 20
84.2793
 30
0.0
 11
178.195
 21
83.2803
 31
0.0
  0
LINE
  8
0
 62
     0
 10
178.195
 20
83.2803
 30
0.0
 11
229.695
 21
83.2803
 31
0.0
  0
LINE
  8
0
 62
     0
 10
229.695
 20
83.2803
 30
0.0
 11
229.851
 21
83.2735
 31
0.0
  0
LINE
  8
0
 62
     0
 10
229.851
 20
83.2735
 30
0.0
 11
230.008
 21
83.2556
 31
0.0
  0
LINE
  8
0
 62
     0
 10
230.008
 20
83.2556
 30
0.0
 11
230.161
 21
83.2252
 31
0.0
  0
LINE
  8
0
 62
     0
 10
230.161
 20
83.2252
 30
0.0
 11
230.314
 21
83.1825
 31
0.0
  0
LINE
  8
0
 62
     0
 10
230.314
 20
83.1825
 30
0.0
 11
230.46
 21
83.1275
 31
0.0
  0
LINE
  8
0
 62
     0
 10
230.46
 20
83.1275
 30
0.0
 11
230.602
 21
83.0626
 31
0.0
  0
LINE
  8
0
 62
     0
 10
230.602
 20
83.0626
 30
0.0
 11
230.74
 21
82.9853
 31
0.0
  0
LINE
  8
0
 62
     0
 10
230.74
 20
82.9853
 30
0.0
 11
230.871
 21
82.8985
 31
0.0
  0
LINE
  8
0
 62
     0
 10
230.871
 20
82.8985
 30
0.0
 11
230.994
 21
82.8008
 31
0.0
  0
LINE
  8
0
 62
     0
 10
230.994
 20
82.8008
 30
0.0
 11
231.109
 21
82.6946
 31
0.0
  0
LINE
  8
0
 62
     0
 10
231.109
 20
82.6946
 30
0.0
 11
231.215
 21
82.5789
 31
0.0
  0
LINE
  8
0
 62
     0
 10
231.215
 20
82.5789
 30
0.0
 11
231.313
 21
82.4562
 31
0.0
  0
LINE
  8
0
 62
     0
 10
231.313
 20
82.4562
 30
0.0
 11
231.4
 21
82.3253
 31
0.0
  0
LINE
  8
0
 62
     0
 10
231.4
 20
82.3253
 30
0.0
 11
231.477
 21
82.1877
 31
0.0
  0
LINE
  8
0
 62
     0
 10
231.477
 20
82.1877
 30
0.0
 11
231.542
 21
82.0455
 31
0.0
  0
LINE
  8
0
 62
     0
 10
231.542
 20
82.0455
 30
0.0
 11
231.597
 21
81.8981
 31
0.0
  0
LINE
  8
0
 62
     0
 10
231.597
 20
81.8981
 30
0.0
 11
231.64
 21
81.7467
 31
0.0
  0
LINE
  8
0
 62
     0
 10
231.64
 20
81.7467
 30
0.0
 11
231.67
 21
81.5922
 31
0.0
  0
LINE
  8
0
 62
     0
 10
231.67
 20
81.5922
 30
0.0
 11
231.688
 21
81.4366
 31
0.0
  0
LINE
  8
0
 62
     0
 10
231.688
 20
81.4366
 30
0.0
 11
231.695
 21
81.2793
 31
0.0
  0
LINE
  8
0
 62
     0
 10
231.695
 20
81.2793
 30
0.0
 11
231.695
 21
6.07854
 31
0.0
  0
LINE
  8
0
 62
     0
 10
231.695
 20
6.07854
 30
0.0
 11
231.688
 21
5.92282
 31
0.0
  0
LINE
  8
0
 62
     0
 10
231.688
 20
5.92282
 30
0.0
 11
231.67
 21
5.76711
 31
0.0
  0
LINE
  8
0
 62
     0
 10
231.67
 20
5.76711
 30
0.0
 11
231.64
 21
5.61277
 31
0.0
  0
LINE
  8
0
 62
     0
 10
231.64
 20
5.61277
 30
0.0
 11
231.597
 21
5.46118
 31
0.0
  0
LINE
  8
0
 62
     0
 10
231.597
 20
5.46118
 30
0.0
 11
231.542
 21
5.31372
 31
0.0
  0
LINE
  8
0
 62
     0
 10
231.542
 20
5.31372
 30
0.0
 11
231.477
 21
5.17179
 31
0.0
  0
LINE
  8
0
 62
     0
 10
231.477
 20
5.17179
 30
0.0
 11
231.4
 21
5.03534
 31
0.0
  0
LINE
  8
0
 62
     0
 10
231.4
 20
5.03534
 30
0.0
 11
231.313
 21
4.90442
 31
0.0
  0
LINE
  8
0
 62
     0
 10
231.313
 20
4.90442
 30
0.0
 11
231.215
 21
4.78042
 31
0.0
  0
LINE
  8
0
 62
     0
 10
231.215
 20
4.78042
 30
0.0
 11
231.109
 21
4.66467
 31
0.0
  0
LINE
  8
0
 62
     0
 10
231.109
 20
4.66467
 30
0.0
 11
230.994
 21
4.55856
 31
0.0
  0
LINE
  8
0
 62
     0
 10
230.994
 20
4.55856
 30
0.0
 11
230.871
 21
4.4607
 31
0.0
  0
LINE
  8
0
 62
     0
 10
230.871
 20
4.4607
 30
0.0
 11
230.74
 21
4.37388
 31
0.0
  0
LINE
  8
0
 62
     0
 10
230.74
 20
4.37388
 30
0.0
 11
230.602
 21
4.29673
 31
0.0
  0
LINE
  8
0
 62
     0
 10
230.602
 20
4.29673
 30
0.0
 11
230.46
 21
4.23196
 31
0.0
  0
LINE
  8
0
 62
     0
 10
230.46
 20
4.23196
 30
0.0
 11
230.314
 21
4.17682
 31
0.0
  0
LINE
  8
0
 62
     0
 10
230.314
 20
4.17682
 30
0.0
 11
230.161
 21
4.13413
 31
0.0
  0
LINE
  8
0
 62
     0
 10
230.161
 20
4.13413
 30
0.0
 11
230.008
 21
4.10379
 31
0.0
  0
LINE
  8
0
 62
     0
 10
230.008
 20
4.10379
 30
0.0
 11
229.851
 21
4.08587
 31
0.0
  0
LINE
  8
0
 62
     0
 10
229.851
 20
4.08587
 30
0.0
 11
229.695
 21
4.08037
 31
0.0
  0
LINE
  8
0
 62
     0
 10
229.695
 20
4.08037
 30
0.0
 11
178.195
 21
4.08037
 31
0.0
  0
LINE
  8
0
 62
     0
 10
178.195
 20
4.08037
 30
0.0
 11
178.195
 21
3.07854
 31
0.0
  0
LINE
  8
0
 62
     0
 10
178.195
 20
3.07854
 30
0.0
 11
178.186
 21
2.84427
 31
0.0
  0
LINE
  8
0
 62
     0
 10
178.186
 20
2.84427
 30
0.0
 11
178.158
 21
2.61001
 31
0.0
  0
LINE
  8
0
 62
     0
 10
178.158
 20
2.61001
 30
0.0
 11
178.113
 21
2.37849
 31
0.0
  0
LINE
  8
0
 62
     0
 10
178.113
 20
2.37849
 30
0.0
 11
178.049
 21
2.15112
 31
0.0
  0
LINE
  8
0
 62
     0
 10
178.049
 20
2.15112
 30
0.0
 11
177.967
 21
1.93063
 31
0.0
  0
LINE
  8
0
 62
     0
 10
177.967
 20
1.93063
 30
0.0
 11
177.869
 21
1.71841
 31
0.0
  0
LINE
  8
0
 62
     0
 10
177.869
 20
1.71841
 30
0.0
 11
177.753
 21
1.51171
 31
0.0
  0
LINE
  8
0
 62
     0
 10
177.753
 20
1.51171
 30
0.0
 11
177.622
 21
1.31603
 31
0.0
  0
LINE
  8
0
 62
     0
 10
177.622
 20
1.31603
 30
0.0
 11
177.476
 21
1.13137
 31
0.0
  0
LINE
  8
0
 62
     0
 10
177.476
 20
1.13137
 30
0.0
 11
177.316
 21
0.957735
 31
0.0
  0
LINE
  8
0
 62
     0
 10
177.316
 20
0.957735
 30
0.0
 11
177.144
 21
0.797885
 31
0.0
  0
LINE
  8
0
 62
     0
 10
177.144
 20
0.797885
 30
0.0
 11
176.959
 21
0.651813
 31
0.0
  0
LINE
  8
0
 62
     0
 10
176.959
 20
0.651813
 30
0.0
 11
176.762
 21
0.522277
 31
0.0
  0
LINE
  8
0
 62
     0
 10
176.762
 20
0.522277
 30
0.0
 11
176.557
 21
0.405144
 31
0.0
  0
LINE
  8
0
 62
     0
 10
176.557
 20
0.405144
 30
0.0
 11
176.343
 21
0.307303
 31
0.0
  0
LINE
  8
0
 62
     0
 10
176.343
 20
0.307303
 30
0.0
 11
176.123
 21
0.225998
 31
0.0
  0
LINE
  8
0
 62
     0
 10
176.123
 20
0.225998
 30
0.0
 11
175.896
 21
0.16123
 31
0.0
  0
LINE
  8
0
 62
     0
 10
175.896
 20
0.16123
 30
0.0
 11
175.665
 21
0.115755
 31
0.0
  0
LINE
  8
0
 62
     0
 10
175.665
 20
0.115755
 30
0.0
 11
175.431
 21
0.0881944
 31
0.0
  0
LINE
  8
0
 62
     0
 10
175.431
 20
0.0881944
 30
0.0
 11
175.195
 21
0.0785481
 31
0.0
  0
LINE
  8
0
 62
     0
 10
175.195
 20
0.0785481
 30
0.0
 11
171.195
 21
0.0785481
 31
0.0
  0
LINE
  8
0
 62
     0
 10
171.195
 20
0.0785481
 30
0.0
 11
170.959
 21
0.0881944
 31
0.0
  0
LINE
  8
0
 62
     0
 10
170.959
 20
0.0881944
 30
0.0
 11
170.725
 21
0.115755
 31
0.0
  0
LINE
  8
0
 62
     0
 10
170.725
 20
0.115755
 30
0.0
 11
170.495
 21
0.16123
 31
0.0
  0
LINE
  8
0
 62
     0
 10
170.495
 20
0.16123
 30
0.0
 11
170.267
 21
0.225998
 31
0.0
  0
LINE
  8
0
 62
     0
 10
170.267
 20
0.225998
 30
0.0
 11
170.047
 21
0.307303
 31
0.0
  0
LINE
  8
0
 62
     0
 10
170.047
 20
0.307303
 30
0.0
 11
169.834
 21
0.405144
 31
0.0
  0
LINE
  8
0
 62
     0
 10
169.834
 20
0.405144
 30
0.0
 11
169.628
 21
0.522277
 31
0.0
  0
LINE
  8
0
 62
     0
 10
169.628
 20
0.522277
 30
0.0
 11
169.431
 21
0.651813
 31
0.0
  0
LINE
  8
0
 62
     0
 10
169.431
 20
0.651813
 30
0.0
 11
169.247
 21
0.797885
 31
0.0
  0
LINE
  8
0
 62
     0
 10
169.247
 20
0.797885
 30
0.0
 11
169.074
 21
0.957735
 31
0.0
  0
LINE
  8
0
 62
     0
 10
169.074
 20
0.957735
 30
0.0
 11
168.915
 21
1.13137
 31
0.0
  0
LINE
  8
0
 62
     0
 10
168.915
 20
1.13137
 30
0.0
 11
168.768
 21
1.31603
 31
0.0
  0
LINE
  8
0
 62
     0
 10
168.768
 20
1.31603
 30
0.0
 11
168.637
 21
1.51171
 31
0.0
  0
LINE
  8
0
 62
     0
 10
168.637
 20
1.51171
 30
0.0
 11
168.522
 21
1.71841
 31
0.0
  0
LINE
  8
0
 62
     0
 10
168.522
 20
1.71841
 30
0.0
 11
168.424
 21
1.93063
 31
0.0
  0
LINE
  8
0
 62
     0
 10
168.424
 20
1.93063
 30
0.0
 11
168.341
 21
2.15112
 31
0.0
  0
LINE
  8
0
 62
     0
 10
168.341
 20
2.15112
 30
0.0
 11
168.278
 21
2.37849
 31
0.0
  0
LINE
  8
0
 62
     0
 10
168.278
 20
2.37849
 30
0.0
 11
168.232
 21
2.61001
 31
0.0
  0
LINE
  8
0
 62
     0
 10
168.232
 20
2.61001
 30
0.0
 11
168.205
 21
2.84427
 31
0.0
  0
LINE
  8
0
 62
     0
 10
168.205
 20
2.84427
 30
0.0
 11
168.195
 21
3.07992
 31
0.0
  0
LINE
  8
0
 62
     0
 10
168.195
 20
3.07992
 30
0.0
 11
168.195
 21
4.08037
 31
0.0
  0
LINE
  8
0
 62
     0
 10
168.195
 20
4.08037
 30
0.0
 11
63.5953
 21
4.07899
 31
0.0
  0
LINE
  8
0
 62
     0
 10
63.5953
 20
4.07899
 30
0.0
 11
63.5953
 21
3.07854
 31
0.0
  0
LINE
  8
0
 62
     0
 10
63.5953
 20
3.07854
 30
0.0
 11
63.584
 21
2.84427
 31
0.0
  0
LINE
  8
0
 62
     0
 10
63.584
 20
2.84427
 30
0.0
 11
63.5579
 21
2.61001
 31
0.0
  0
LINE
  8
0
 62
     0
 10
63.5579
 20
2.61001
 30
0.0
 11
63.5123
 21
2.37849
 31
0.0
  0
LINE
  8
0
 62
     0
 10
63.5123
 20
2.37849
 30
0.0
 11
63.4478
 21
2.15112
 31
0.0
  0
LINE
  8
0
 62
     0
 10
63.4478
 20
2.15112
 30
0.0
 11
63.3663
 21
1.93063
 31
0.0
  0
LINE
  8
0
 62
     0
 10
63.3663
 20
1.93063
 30
0.0
 11
63.2672
 21
1.71841
 31
0.0
  0
LINE
  8
0
 62
     0
 10
63.2672
 20
1.71841
 30
0.0
 11
63.1515
 21
1.51171
 31
0.0
  0
LINE
  8
0
 62
     0
 10
63.1515
 20
1.51171
 30
0.0
 11
63.022
 21
1.31603
 31
0.0
  0
LINE
  8
0
 62
     0
 10
63.022
 20
1.31603
 30
0.0
 11
62.8756
 21
1.13137
 31
0.0
  0
LINE
  8
0
 62
     0
 10
62.8756
 20
1.13137
 30
0.0
 11
62.7158
 21
0.957735
 31
0.0
  0
LINE
  8
0
 62
     0
 10
62.7158
 20
0.957735
 30
0.0
 11
62.5422
 21
0.797885
 31
0.0
  0
LINE
  8
0
 62
     0
 10
62.5422
 20
0.797885
 30
0.0
 11
62.3577
 21
0.651813
 31
0.0
  0
LINE
  8
0
 62
     0
 10
62.3577
 20
0.651813
 30
0.0
 11
62.1619
 21
0.522277
 31
0.0
  0
LINE
  8
0
 62
     0
 10
62.1619
 20
0.522277
 30
0.0
 11
61.9552
 21
0.405144
 31
0.0
  0
LINE
  8
0
 62
     0
 10
61.9552
 20
0.405144
 30
0.0
 11
61.7432
 21
0.307303
 31
0.0
  0
LINE
  8
0
 62
     0
 10
61.7432
 20
0.307303
 30
0.0
 11
61.5213
 21
0.225998
 31
0.0
  0
LINE
  8
0
 62
     0
 10
61.5213
 20
0.225998
 30
0.0
 11
61.2951
 21
0.16123
 31
0.0
  0
LINE
  8
0
 62
     0
 10
61.2951
 20
0.16123
 30
0.0
 11
61.0637
 21
0.115755
 31
0.0
  0
LINE
  8
0
 62
     0
 10
61.0637
 20
0.115755
 30
0.0
 11
60.8295
 21
0.0881944
 31
0.0
  0
LINE
  8
0
 62
     0
 10
60.8295
 20
0.0881944
 30
0.0
 11
60.5924
 21
0.0785481
 31
0.0
  0
LINE
  8
0
 62
     0
 10
60.5924
 20
0.0785481
 30
0.0
 11
56.5947
 21
0.0785481
 31
0.0
  0
LINE
  8
0
 62
     0
 10
56.5947
 20
0.0785481
 30
0.0
 11
56.3591
 21
0.0881944
 31
0.0
  0
LINE
  8
0
 62
     0
 10
56.3591
 20
0.0881944
 30
0.0
 11
56.1248
 21
0.115755
 31
0.0
  0
LINE
  8
0
 62
     0
 10
56.1248
 20
0.115755
 30
0.0
 11
55.8934
 21
0.16123
 31
0.0
  0
LINE
  8
0
 62
     0
 10
55.8934
 20
0.16123
 30
0.0
 11
55.6673
 21
0.225998
 31
0.0
  0
LINE
  8
0
 62
     0
 10
55.6673
 20
0.225998
 30
0.0
 11
55.4454
 21
0.307303
 31
0.0
  0
LINE
  8
0
 62
     0
 10
55.4454
 20
0.307303
 30
0.0
 11
55.233
 21
0.405144
 31
0.0
  0
LINE
  8
0
 62
     0
 10
55.233
 20
0.405144
 30
0.0
 11
55.0263
 21
0.522277
 31
0.0
  0
LINE
  8
0
 62
     0
 10
55.0263
 20
0.522277
 30
0.0
 11
54.8308
 21
0.651813
 31
0.0
  0
LINE
  8
0
 62
     0
 10
54.8308
 20
0.651813
 30
0.0
 11
54.646
 21
0.797885
 31
0.0
  0
LINE
  8
0
 62
     0
 10
54.646
 20
0.797885
 30
0.0
 11
54.4724
 21
0.957735
 31
0.0
  0
LINE
  8
0
 62
     0
 10
54.4724
 20
0.957735
 30
0.0
 11
54.3126
 21
1.13137
 31
0.0
  0
LINE
  8
0
 62
     0
 10
54.3126
 20
1.13137
 30
0.0
 11
54.1666
 21
1.31603
 31
0.0
  0
LINE
  8
0
 62
     0
 10
54.1666
 20
1.31603
 30
0.0
 11
54.0371
 21
1.51171
 31
0.0
  0
LINE
  8
0
 62
     0
 10
54.0371
 20
1.51171
 30
0.0
 11
53.9214
 21
1.71841
 31
0.0
  0
LINE
  8
0
 62
     0
 10
53.9214
 20
1.71841
 30
0.0
 11
53.8233
 21
1.93063
 31
0.0
  0
LINE
  8
0
 62
     0
 10
53.8233
 20
1.93063
 30
0.0
 11
53.7408
 21
2.15112
 31
0.0
  0
LINE
  8
0
 62
     0
 10
53.7408
 20
2.15112
 30
0.0
 11
53.6773
 21
2.37849
 31
0.0
  0
LINE
  8
0
 62
     0
 10
53.6773
 20
2.37849
 30
0.0
 11
53.6303
 21
2.61001
 31
0.0
  0
LINE
  8
0
 62
     0
 10
53.6303
 20
2.61001
 30
0.0
 11
53.6042
 21
2.84427
 31
0.0
  0
LINE
  8
0
 62
     0
 10
53.6042
 20
2.84427
 30
0.0
 11
53.5947
 21
3.07992
 31
0.0
  0
LINE
  8
0
 62
     0
 10
53.5947
 20
3.07992
 30
0.0
 11
53.5947
 21
4.07899
 31
0.0
  0
LINE
  8
0
 62
     0
 10
53.5947
 20
4.07899
 30
0.0
 11
2.09462
 21
4.07899
 31
0.0
  0
LINE
  8
0
 62
     0
 10
2.09462
 20
4.07899
 30
0.0
 11
1.93752
 21
4.08587
 31
0.0
  0
LINE
  8
0
 62
     0
 10
1.93752
 20
4.08587
 30
0.0
 11
1.7818
 21
4.10379
 31
0.0
  0
LINE
  8
0
 62
     0
 10
1.7818
 20
4.10379
 30
0.0
 11
1.62746
 21
4.13413
 31
0.0
  0
LINE
  8
0
 62
     0
 10
1.62746
 20
4.13413
 30
0.0
 11
1.47588
 21
4.17682
 31
0.0
  0
LINE
  8
0
 62
     0
 10
1.47588
 20
4.17682
 30
0.0
 11
1.32843
 21
4.23196
 31
0.0
  0
LINE
  8
0
 62
     0
 10
1.32843
 20
4.23196
 30
0.0
 11
1.18649
 21
4.29673
 31
0.0
  0
LINE
  8
0
 62
     0
 10
1.18649
 20
4.29673
 30
0.0
 11
1.05006
 21
4.37388
 31
0.0
  0
LINE
  8
0
 62
     0
 10
1.05006
 20
4.37388
 30
0.0
 11
0.919152
 21
4.4607
 31
0.0
  0
LINE
  8
0
 62
     0
 10
0.919152
 20
4.4607
 30
0.0
 11
0.795129
 21
4.55856
 31
0.0
  0
LINE
  8
0
 62
     0
 10
0.795129
 20
4.55856
 30
0.0
 11
0.679372
 21
4.66467
 31
0.0
  0
LINE
  8
0
 62
     0
 10
0.679372
 20
4.66467
 30
0.0
 11
0.573264
 21
4.78042
 31
0.0
  0
LINE
  8
0
 62
     0
 10
0.573264
 20
4.78042
 30
0.0
 11
0.475424
 21
4.90442
 31
0.0
  0
LINE
  8
0
 62
     0
 10
0.475424
 20
4.90442
 30
0.0
 11
0.388606
 21
5.03534
 31
0.0
  0
LINE
  8
0
 62
     0
 10
0.388606
 20
5.03534
 30
0.0
 11
0.311437
 21
5.17179
 31
0.0
  0
LINE
  8
0
 62
     0
 10
0.311437
 20
5.17179
 30
0.0
 11
0.246669
 21
5.31372
 31
0.0
  0
LINE
  8
0
 62
     0
 10
0.246669
 20
5.31372
 30
0.0
 11
0.191547
 21
5.46118
 31
0.0
  0
LINE
  8
0
 62
     0
 10
0.191547
 20
5.46118
 30
0.0
 11
0.150206
 21
5.61277
 31
0.0
  0
LINE
  8
0
 62
     0
 10
0.150206
 20
5.61277
 30
0.0
 11
0.118511
 21
5.76711
 31
0.0
  0
LINE
  8
0
 62
     0
 10
0.118511
 20
5.76711
 30
0.0
 11
0.100597
 21
5.92282
 31
0.0
  0
LINE
  8
0
 62
     0
 10
0.100597
 20
5.92282
 30
0.0
 11
0.0937066
 21
6.07854
 31
0.0
  0
LINE
  8
0
 62
     0
 10
0.0937066
 20
6.07854
 30
0.0
 11
0.0950846
 21
81.2793
 31
0.0
  0
LINE
  8
0
 62
     0
 10
0.0950846
 20
81.2793
 30
0.0
 11
0.100597
 21
81.4366
 31
0.0
  0
LINE
  8
0
 62
     0
 10
0.100597
 20
81.4366
 30
0.0
 11
0.118511
 21
81.5922
 31
0.0
  0
LINE
  8
0
 62
     0
 10
0.118511
 20
81.5922
 30
0.0
 11
0.150206
 21
81.7467
 31
0.0
  0
LINE
  8
0
 62
     0
 10
0.150206
 20
81.7467
 30
0.0
 11
0.191547
 21
81.8981
 31
0.0
  0
LINE
  8
0
 62
     0
 10
0.191547
 20
81.8981
 30
0.0
 11
0.246669
 21
82.0455
 31
0.0
  0
LINE
  8
0
 62
     0
 10
0.246669
 20
82.0455
 30
0.0
 11
0.311437
 21
82.1877
 31
0.0
  0
LINE
  8
0
 62
     0
 10
0.311437
 20
82.1877
 30
0.0
 11
0.388606
 21
82.3253
 31
0.0
  0
LINE
  8
0
 62
     0
 10
0.388606
 20
82.3253
 30
0.0
 11
0.475424
 21
82.4562
 31
0.0
  0
LINE
  8
0
 62
     0
 10
0.475424
 20
82.4562
 30
0.0
 11
0.573264
 21
82.5789
 31
0.0
  0
LINE
  8
0
 62
     0
 10
0.573264
 20
82.5789
 30
0.0
 11
0.679372
 21
82.6946
 31
0.0
  0
LINE
  8
0
 62
     0
 10
0.679372
 20
82.6946
 30
0.0
 11
0.795129
 21
82.8008
 31
0.0
  0
LINE
  8
0
 62
     0
 10
0.795129
 20
82.8008
 30
0.0
 11
0.919152
 21
82.8985
 31
0.0
  0
LINE
  8
0
 62
     0
 10
0.919152
 20
82.8985
 30
0.0
 11
1.05006
 21
82.9853
 31
0.0
  0
LINE
  8
0
 62
     0
 10
1.05006
 20
82.9853
 30
0.0
 11
1.18649
 21
83.0626
 31
0.0
  0
LINE
  8
0
 62
     0
 10
1.18649
 20
83.0626
 30
0.0
 11
1.32843
 21
83.1275
 31
0.0
  0
LINE
  8
0
 62
     0
 10
1.32843
 20
83.1275
 30
0.0
 11
1.47588
 21
83.1825
 31
0.0
  0
LINE
  8
0
 62
     0
 10
1.47588
 20
83.1825
 30
0.0
 11
1.62746
 21
83.2252
 31
0.0
  0
LINE
  8
0
 62
     0
 10
1.62746
 20
83.2252
 30
0.0
 11
1.7818
 21
83.2556
 31
0.0
  0
LINE
  8
0
 62
     0
 10
1.7818
 20
83.2556
 30
0.0
 11
1.93752
 21
83.2735
 31
0.0
  0
LINE
  8
0
 62
     0
 10
1.93752
 20
83.2735
 30
0.0
 11
2.09462
 21
83.2803
 31
0.0
  0
LINE
  8
0
 62
     0
 10
2.09462
 20
83.2803
 30
0.0
 11
53.5947
 21
83.2803
 31
0.0
  0
LINE
  8
0
 62
     0
 10
53.5947
 20
83.2803
 30
0.0
 11
53.5947
 21
84.2793
 31
0.0
  0
LINE
  8
0
 62
     0
 10
53.5947
 20
84.2793
 30
0.0
 11
53.6042
 21
84.515
 31
0.0
  0
LINE
  8
0
 62
     0
 10
53.6042
 20
84.515
 30
0.0
 11
53.6303
 21
84.7492
 31
0.0
  0
LINE
  8
0
 62
     0
 10
53.6303
 20
84.7492
 30
0.0
 11
53.6773
 21
84.981
 31
0.0
  0
LINE
  8
0
 62
     0
 10
53.6773
 20
84.981
 30
0.0
 11
53.7408
 21
85.2082
 31
0.0
  0
LINE
  8
0
 62
     0
 10
53.7408
 20
85.2082
 30
0.0
 11
53.8233
 21
85.4287
 31
0.0
  0
LINE
  8
0
 62
     0
 10
53.8233
 20
85.4287
 30
0.0
 11
53.9214
 21
85.6425
 31
0.0
  0
LINE
  8
0
 62
     0
 10
53.9214
 20
85.6425
 30
0.0
 11
54.0371
 21
85.8478
 31
0.0
  0
LINE
  8
0
 62
     0
 10
54.0371
 20
85.8478
 30
0.0
 11
54.1666
 21
86.0432
 31
0.0
  0
LINE
  8
0
 62
     0
 10
54.1666
 20
86.0432
 30
0.0
 11
54.3126
 21
86.2295
 31
0.0
  0
LINE
  8
0
 62
     0
 10
54.3126
 20
86.2295
 30
0.0
 11
54.4724
 21
86.4016
 31
0.0
  0
LINE
  8
0
 62
     0
 10
54.4724
 20
86.4016
 30
0.0
 11
54.646
 21
86.5614
 31
0.0
  0
LINE
  8
0
 62
     0
 10
54.646
 20
86.5614
 30
0.0
 11
54.8308
 21
86.7075
 31
0.0
  0
LINE
  8
0
 62
     0
 10
54.8308
 20
86.7075
 30
0.0
 11
55.0263
 21
86.837
 31
0.0
  0
LINE
  8
0
 62
     0
 10
55.0263
 20
86.837
 30
0.0
 11
55.233
 21
86.9541
 31
0.0
  0
LINE
  8
0
 62
     0
 10
55.233
 20
86.9541
 30
0.0
 11
55.4454
 21
87.0521
 31
0.0
  0
LINE
  8
0
 62
     0
 10
55.4454
 20
87.0521
 30
0.0
 11
55.6673
 21
87.1333
 31
0.0
  0
LINE
  8
0
 62
     0
 10
55.6673
 20
87.1333
 30
0.0
 11
55.8934
 21
87.1982
 31
0.0
  0
LINE
  8
0
 62
     0
 10
55.8934
 20
87.1982
 30
0.0
 11
56.1248
 21
87.2437
 31
0.0
  0
LINE
  8
0
 62
     0
 10
56.1248
 20
87.2437
 30
0.0
 11
56.3591
 21
87.2712
 31
0.0
  0
LINE
  8
0
 62
     0
 10
56.3591
 20
87.2712
 30
0.0
 11
56.5947
 21
87.2808
 31
0.0
  0
LINE
  8
0
 62
     0
 10
56.5947
 20
87.2808
 30
0.0
 11
60.5952
 21
87.2793
 31
0.0
  0
LINE
  8
0
 62
     0
 10
60.5952
 20
87.2793
 30
0.0
 11
60.8295
 21
87.2712
 31
0.0
  0
LINE
  8
0
 62
     0
 10
60.8295
 20
87.2712
 30
0.0
 11
61.0637
 21
87.2437
 31
0.0
  0
LINE
  8
0
 62
     0
 10
61.0637
 20
87.2437
 30
0.0
 11
61.2951
 21
87.1982
 31
0.0
  0
LINE
  8
0
 62
     0
 10
61.2951
 20
87.1982
 30
0.0
 11
61.5213
 21
87.1333
 31
0.0
  0
LINE
  8
0
 62
     0
 10
61.5213
 20
87.1333
 30
0.0
 11
61.7432
 21
87.0521
 31
0.0
  0
LINE
  8
0
 62
     0
 10
61.7432
 20
87.0521
 30
0.0
 11
61.9552
 21
86.9541
 31
0.0
  0
LINE
  8
0
 62
     0
 10
61.9552
 20
86.9541
 30
0.0
 11
62.1619
 21
86.837
 31
0.0
  0
LINE
  8
0
 62
     0
 10
62.1619
 20
86.837
 30
0.0
 11
62.3577
 21
86.7075
 31
0.0
  0
LINE
  8
0
 62
     0
 10
62.3577
 20
86.7075
 30
0.0
 11
62.5422
 21
86.5614
 31
0.0
  0
LINE
  8
0
 62
     0
 10
62.5422
 20
86.5614
 30
0.0
 11
62.7158
 21
86.4016
 31
0.0
  0
LINE
  8
0
 62
     0
 10
62.7158
 20
86.4016
 30
0.0
 11
62.8756
 21
86.2295
 31
0.0
  0
LINE
  8
0
 62
     0
 10
62.8756
 20
86.2295
 30
0.0
 11
63.022
 21
86.0432
 31
0.0
  0
LINE
  8
0
 62
     0
 10
63.022
 20
86.0432
 30
0.0
 11
63.1515
 21
85.8478
 31
0.0
  0
LINE
  8
0
 62
     0
 10
63.1515
 20
85.8478
 30
0.0
 11
63.2672
 21
85.6425
 31
0.0
  0
LINE
  8
0
 62
     0
 10
63.2672
 20
85.6425
 30
0.0
 11
63.3663
 21
85.4287
 31
0.0
  0
LINE
  8
0
 62
     0
 10
63.3663
 20
85.4287
 30
0.0
 11
63.4478
 21
85.2082
 31
0.0
  0
LINE
  8
0
 62
     0
 10
63.4478
 20
85.2082
 30
0.0
 11
63.5123
 21
84.981
 31
0.0
  0
LINE
  8
0
 62
     0
 10
63.5123
 20
84.981
 30
0.0
 11
63.5579
 21
84.7492
 31
0.0
  0
LINE
  8
0
 62
     0
 10
63.5579
 20
84.7492
 30
0.0
 11
63.584
 21
84.515
 31
0.0
  0
LINE
  8
0
 62
     0
 10
63.584
 20
84.515
 30
0.0
 11
63.5953
 21
84.2793
 31
0.0
  0
LINE
  8
0
 62
     0
 10
63.5953
 20
84.2793
 30
0.0
 11
63.5953
 21
83.2803
 31
0.0
  0
LINE
  8
0
 62
     0
 10
63.5953
 20
83.2803
 30
0.0
 11
168.195
 21
83.2803
 31
0.0
  0
LINE
  8
0
 62
     0
 10
168.195
 20
83.2803
 30
0.0
 11
168.195
 21
84.2793
 31
0.0
  0
LINE
  8
0
 62
     0
 10
168.195
 20
84.2793
 30
0.0
 11
168.205
 21
84.515
 31
0.0
  0
LINE
  8
0
 62
     0
 10
168.205
 20
84.515
 30
0.0
 11
168.232
 21
84.7492
 31
0.0
  0
LINE
  8
0
 62
     0
 10
168.232
 20
84.7492
 30
0.0
 11
168.278
 21
84.981
 31
0.0
  0
LINE
  8
0
 62
     0
 10
168.278
 20
84.981
 30
0.0
 11
168.341
 21
85.2082
 31
0.0
  0
LINE
  8
0
 62
     0
 10
168.341
 20
85.2082
 30
0.0
 11
168.424
 21
85.4287
 31
0.0
  0
LINE
  8
0
 62
     0
 10
168.424
 20
85.4287
 30
0.0
 11
168.522
 21
85.6425
 31
0.0
  0
LINE
  8
0
 62
     0
 10
168.522
 20
85.6425
 30
0.0
 11
168.637
 21
85.8478
 31
0.0
  0
LINE
  8
0
 62
     0
 10
168.637
 20
85.8478
 30
0.0
 11
168.768
 21
86.0432
 31
0.0
  0
LINE
  8
0
 62
     0
 10
168.768
 20
86.0432
 30
0.0
 11
168.915
 21
86.2295
 31
0.0
  0
LINE
  8
0
 62
     0
 10
168.915
 20
86.2295
 30
0.0
 11
169.074
 21
86.4016
 31
0.0
  0
LINE
  8
0
 62
     0
 10
169.074
 20
86.4016
 30
0.0
 11
169.247
 21
86.5614
 31
0.0
  0
LINE
  8
0
 62
     0
 10
169.247
 20
86.5614
 30
0.0
 11
169.431
 21
86.7075
 31
0.0
  0
LINE
  8
0
 62
     0
 10
169.431
 20
86.7075
 30
0.0
 11
169.628
 21
86.837
 31
0.0
  0
LINE
  8
0
 62
     0
 10
169.628
 20
86.837
 30
0.0
 11
169.834
 21
86.9541
 31
0.0
  0
LINE
  8
0
 62
     0
 10
169.834
 20
86.9541
 30
0.0
 11
170.047
 21
87.0521
 31
0.0
  0
LINE
  8
0
 62
     0
 10
170.047
 20
87.0521
 30
0.0
 11
170.267
 21
87.1333
 31
0.0
  0
LINE
  8
0
 62
     0
 10
170.267
 20
87.1333
 30
0.0
 11
170.495
 21
87.1982
 31
0.0
  0
LINE
  8
0
 62
     0
 10
170.495
 20
87.1982
 30
0.0
 11
170.725
 21
87.2437
 31
0.0
  0
LINE
  8
0
 62
     0
 10
170.725
 20
87.2437
 30
0.0
 11
170.959
 21
87.2712
 31
0.0
  0
LINE
  8
0
 62
     0
 10
170.959
 20
87.2712
 30
0.0
 11
171.195
 21
87.2808
 31
0.0
  0
LINE
  8
0
 62
     0
 10
171.195
 20
87.2808
 30
0.0
 11
175.195
 21
87.2793
 31
0.0
  0
LINE
  8
0
 62
     0
 10
58.4369
 20
5.07256
 30
0.0
 11
58.2814
 21
5.05464
 31
0.0
  0
LINE
  8
0
 62
     0
 10
58.2814
 20
5.05464
 30
0.0
 11
58.1283
 21
5.02433
 31
0.0
  0
LINE
  8
0
 62
     0
 10
58.1283
 20
5.02433
 30
0.0
 11
57.9755
 21
4.98161
 31
0.0
  0
LINE
  8
0
 62
     0
 10
57.9755
 20
4.98161
 30
0.0
 11
57.8294
 21
4.92647
 31
0.0
  0
LINE
  8
0
 62
     0
 10
57.8294
 20
4.92647
 30
0.0
 11
57.6873
 21
4.86174
 31
0.0
  0
LINE
  8
0
 62
     0
 10
57.6873
 20
4.86174
 30
0.0
 11
57.5497
 21
4.78455
 31
0.0
  0
LINE
  8
0
 62
     0
 10
57.5497
 20
4.78455
 30
0.0
 11
57.4188
 21
4.69773
 31
0.0
  0
LINE
  8
0
 62
     0
 10
57.4188
 20
4.69773
 30
0.0
 11
57.2961
 21
4.5999
 31
0.0
  0
LINE
  8
0
 62
     0
 10
57.2961
 20
4.5999
 30
0.0
 11
57.1803
 21
4.49379
 31
0.0
  0
LINE
  8
0
 62
     0
 10
57.1803
 20
4.49379
 30
0.0
 11
57.0742
 21
4.37804
 31
0.0
  0
LINE
  8
0
 62
     0
 10
57.0742
 20
4.37804
 30
0.0
 11
56.9764
 21
4.25538
 31
0.0
  0
LINE
  8
0
 62
     0
 10
56.9764
 20
4.25538
 30
0.0
 11
56.8882
 21
4.12309
 31
0.0
  0
LINE
  8
0
 62
     0
 10
56.8882
 20
4.12309
 30
0.0
 11
56.8124
 21
3.98667
 31
0.0
  0
LINE
  8
0
 62
     0
 10
56.8124
 20
3.98667
 30
0.0
 11
56.7461
 21
3.84471
 31
0.0
  0
LINE
  8
0
 62
     0
 10
56.7461
 20
3.84471
 30
0.0
 11
56.691
 21
3.69729
 31
0.0
  0
LINE
  8
0
 62
     0
 10
56.691
 20
3.69729
 30
0.0
 11
56.6498
 21
3.5457
 31
0.0
  0
LINE
  8
0
 62
     0
 10
56.6498
 20
3.5457
 30
0.0
 11
56.618
 21
3.39135
 31
0.0
  0
LINE
  8
0
 62
     0
 10
56.618
 20
3.39135
 30
0.0
 11
56.6
 21
3.23564
 31
0.0
  0
LINE
  8
0
 62
     0
 10
56.6
 20
3.23564
 30
0.0
 11
56.5933
 21
3.07992
 31
0.0
  0
LINE
  8
0
 62
     0
 10
56.5933
 20
3.07992
 30
0.0
 11
56.6
 21
2.92282
 31
0.0
  0
LINE
  8
0
 62
     0
 10
56.6
 20
2.92282
 30
0.0
 11
56.618
 21
2.7671
 31
0.0
  0
LINE
  8
0
 62
     0
 10
56.618
 20
2.7671
 30
0.0
 11
56.6498
 21
2.61276
 31
0.0
  0
LINE
  8
0
 62
     0
 10
56.6498
 20
2.61276
 30
0.0
 11
56.691
 21
2.46118
 31
0.0
  0
LINE
  8
0
 62
     0
 10
56.691
 20
2.46118
 30
0.0
 11
56.7461
 21
2.31372
 31
0.0
  0
LINE
  8
0
 62
     0
 10
56.7461
 20
2.31372
 30
0.0
 11
56.8124
 21
2.17179
 31
0.0
  0
LINE
  8
0
 62
     0
 10
56.8124
 20
2.17179
 30
0.0
 11
56.8882
 21
2.03536
 31
0.0
  0
LINE
  8
0
 62
     0
 10
56.8882
 20
2.03536
 30
0.0
 11
56.9764
 21
1.90445
 31
0.0
  0
LINE
  8
0
 62
     0
 10
56.9764
 20
1.90445
 30
0.0
 11
57.0742
 21
1.78043
 31
0.0
  0
LINE
  8
0
 62
     0
 10
57.0742
 20
1.78043
 30
0.0
 11
57.1803
 21
1.66467
 31
0.0
  0
LINE
  8
0
 62
     0
 10
57.1803
 20
1.66467
 30
0.0
 11
57.2961
 21
1.55856
 31
0.0
  0
LINE
  8
0
 62
     0
 10
57.2961
 20
1.55856
 30
0.0
 11
57.4188
 21
1.46072
 31
0.0
  0
LINE
  8
0
 62
     0
 10
57.4188
 20
1.46072
 30
0.0
 11
57.5497
 21
1.3739
 31
0.0
  0
LINE
  8
0
 62
     0
 10
57.5497
 20
1.3739
 30
0.0
 11
57.6873
 21
1.29673
 31
0.0
  0
LINE
  8
0
 62
     0
 10
57.6873
 20
1.29673
 30
0.0
 11
57.8294
 21
1.23197
 31
0.0
  0
LINE
  8
0
 62
     0
 10
57.8294
 20
1.23197
 30
0.0
 11
57.9755
 21
1.17685
 31
0.0
  0
LINE
  8
0
 62
     0
 10
57.9755
 20
1.17685
 30
0.0
 11
58.1283
 21
1.13412
 31
0.0
  0
LINE
  8
0
 62
     0
 10
58.1283
 20
1.13412
 30
0.0
 11
58.2814
 21
1.10381
 31
0.0
  0
LINE
  8
0
 62
     0
 10
58.2814
 20
1.10381
 30
0.0
 11
58.4369
 21
1.0859
 31
0.0
  0
LINE
  8
0
 62
     0
 10
58.4369
 20
1.0859
 30
0.0
 11
58.5943
 21
1.08038
 31
0.0
  0
LINE
  8
0
 62
     0
 10
58.5943
 20
1.08038
 30
0.0
 11
58.7513
 21
1.0859
 31
0.0
  0
LINE
  8
0
 62
     0
 10
58.7513
 20
1.0859
 30
0.0
 11
58.9068
 21
1.10381
 31
0.0
  0
LINE
  8
0
 62
     0
 10
58.9068
 20
1.10381
 30
0.0
 11
59.0613
 21
1.13412
 31
0.0
  0
LINE
  8
0
 62
     0
 10
59.0613
 20
1.13412
 30
0.0
 11
59.2116
 21
1.17685
 31
0.0
  0
LINE
  8
0
 62
     0
 10
59.2116
 20
1.17685
 30
0.0
 11
59.3605
 21
1.23197
 31
0.0
  0
LINE
  8
0
 62
     0
 10
59.3605
 20
1.23197
 30
0.0
 11
59.5023
 21
1.29673
 31
0.0
  0
LINE
  8
0
 62
     0
 10
59.5023
 20
1.29673
 30
0.0
 11
59.6388
 21
1.3739
 31
0.0
  0
LINE
  8
0
 62
     0
 10
59.6388
 20
1.3739
 30
0.0
 11
59.7697
 21
1.46072
 31
0.0
  0
LINE
  8
0
 62
     0
 10
59.7697
 20
1.46072
 30
0.0
 11
59.8921
 21
1.55856
 31
0.0
  0
LINE
  8
0
 62
     0
 10
59.8921
 20
1.55856
 30
0.0
 11
60.0093
 21
1.66467
 31
0.0
  0
LINE
  8
0
 62
     0
 10
60.0093
 20
1.66467
 30
0.0
 11
60.114
 21
1.78043
 31
0.0
  0
LINE
  8
0
 62
     0
 10
60.114
 20
1.78043
 30
0.0
 11
60.2121
 21
1.90445
 31
0.0
  0
LINE
  8
0
 62
     0
 10
60.2121
 20
1.90445
 30
0.0
 11
60.3003
 21
2.03536
 31
0.0
  0
LINE
  8
0
 62
     0
 10
60.3003
 20
2.03536
 30
0.0
 11
60.3772
 21
2.17179
 31
0.0
  0
LINE
  8
0
 62
     0
 10
60.3772
 20
2.17179
 30
0.0
 11
60.4407
 21
2.31372
 31
0.0
  0
LINE
  8
0
 62
     0
 10
60.4407
 20
2.31372
 30
0.0
 11
60.4972
 21
2.46118
 31
0.0
  0
LINE
  8
0
 62
     0
 10
60.4972
 20
2.46118
 30
0.0
 11
60.5384
 21
2.61276
 31
0.0
  0
LINE
  8
0
 62
     0
 10
60.5384
 20
2.61276
 30
0.0
 11
60.5688
 21
2.7671
 31
0.0
  0
LINE
  8
0
 62
     0
 10
60.5688
 20
2.7671
 30
0.0
 11
60.5868
 21
2.92282
 31
0.0
  0
LINE
  8
0
 62
     0
 10
60.5868
 20
2.92282
 30
0.0
 11
60.5924
 21
3.07992
 31
0.0
  0
LINE
  8
0
 62
     0
 10
60.5924
 20
3.07992
 30
0.0
 11
60.5868
 21
3.23564
 31
0.0
  0
LINE
  8
0
 62
     0
 10
60.5868
 20
3.23564
 30
0.0
 11
60.5688
 21
3.39135
 31
0.0
  0
LINE
  8
0
 62
     0
 10
60.5688
 20
3.39135
 30
0.0
 11
60.5384
 21
3.5457
 31
0.0
  0
LINE
  8
0
 62
     0
 10
60.5384
 20
3.5457
 30
0.0
 11
60.4972
 21
3.69729
 31
0.0
  0
LINE
  8
0
 62
     0
 10
60.4972
 20
3.69729
 30
0.0
 11
60.4407
 21
3.84471
 31
0.0
  0
LINE
  8
0
 62
     0
 10
60.4407
 20
3.84471
 30
0.0
 11
60.3772
 21
3.98667
 31
0.0
  0
LINE
  8
0
 62
     0
 10
60.3772
 20
3.98667
 30
0.0
 11
60.3003
 21
4.12309
 31
0.0
  0
LINE
  8
0
 62
     0
 10
60.3003
 20
4.12309
 30
0.0
 11
60.2121
 21
4.25538
 31
0.0
  0
LINE
  8
0
 62
     0
 10
60.2121
 20
4.25538
 30
0.0
 11
60.114
 21
4.37804
 31
0.0
  0
LINE
  8
0
 62
     0
 10
60.114
 20
4.37804
 30
0.0
 11
60.0093
 21
4.49379
 31
0.0
  0
LINE
  8
0
 62
     0
 10
60.0093
 20
4.49379
 30
0.0
 11
59.8921
 21
4.5999
 31
0.0
  0
LINE
  8
0
 62
     0
 10
59.8921
 20
4.5999
 30
0.0
 11
59.7697
 21
4.69773
 31
0.0
  0
LINE
  8
0
 62
     0
 10
59.7697
 20
4.69773
 30
0.0
 11
59.6388
 21
4.78455
 31
0.0
  0
LINE
  8
0
 62
     0
 10
59.6388
 20
4.78455
 30
0.0
 11
59.5023
 21
4.86174
 31
0.0
  0
LINE
  8
0
 62
     0
 10
59.5023
 20
4.86174
 30
0.0
 11
59.3605
 21
4.92647
 31
0.0
  0
LINE
  8
0
 62
     0
 10
59.3605
 20
4.92647
 30
0.0
 11
59.2116
 21
4.98161
 31
0.0
  0
LINE
  8
0
 62
     0
 10
59.2116
 20
4.98161
 30
0.0
 11
59.0613
 21
5.02433
 31
0.0
  0
LINE
  8
0
 62
     0
 10
59.0613
 20
5.02433
 30
0.0
 11
58.9068
 21
5.05464
 31
0.0
  0
LINE
  8
0
 62
     0
 10
58.9068
 20
5.05464
 30
0.0
 11
58.7513
 21
5.07256
 31
0.0
  0
LINE
  8
0
 62
     0
 10
58.7513
 20
5.07256
 30
0.0
 11
58.5943
 21
5.07944
 31
0.0
  0
LINE
  8
0
 62
     0
 10
58.5943
 20
5.07944
 30
0.0
 11
58.4369
 21
5.07256
 31
0.0
  0
LINE
  8
0
 62
     0
 10
173.039
 20
5.07256
 30
0.0
 11
172.883
 21
5.05464
 31
0.0
  0
LINE
  8
0
 62
     0
 10
172.883
 20
5.05464
 30
0.0
 11
172.729
 21
5.02433
 31
0.0
  0
LINE
  8
0
 62
     0
 10
172.729
 20
5.02433
 30
0.0
 11
172.577
 21
4.98161
 31
0.0
  0
LINE
  8
0
 62
     0
 10
172.577
 20
4.98161
 30
0.0
 11
172.43
 21
4.92647
 31
0.0
  0
LINE
  8
0
 62
     0
 10
172.43
 20
4.92647
 30
0.0
 11
172.288
 21
4.86174
 31
0.0
  0
LINE
  8
0
 62
     0
 10
172.288
 20
4.86174
 30
0.0
 11
172.151
 21
4.78455
 31
0.0
  0
LINE
  8
0
 62
     0
 10
172.151
 20
4.78455
 30
0.0
 11
172.019
 21
4.69773
 31
0.0
  0
LINE
  8
0
 62
     0
 10
172.019
 20
4.69773
 30
0.0
 11
171.897
 21
4.5999
 31
0.0
  0
LINE
  8
0
 62
     0
 10
171.897
 20
4.5999
 30
0.0
 11
171.781
 21
4.49379
 31
0.0
  0
LINE
  8
0
 62
     0
 10
171.781
 20
4.49379
 30
0.0
 11
171.675
 21
4.37804
 31
0.0
  0
LINE
  8
0
 62
     0
 10
171.675
 20
4.37804
 30
0.0
 11
171.577
 21
4.25538
 31
0.0
  0
LINE
  8
0
 62
     0
 10
171.577
 20
4.25538
 30
0.0
 11
171.49
 21
4.12309
 31
0.0
  0
LINE
  8
0
 62
     0
 10
171.49
 20
4.12309
 30
0.0
 11
171.413
 21
3.98667
 31
0.0
  0
LINE
  8
0
 62
     0
 10
171.413
 20
3.98667
 30
0.0
 11
171.348
 21
3.84471
 31
0.0
  0
LINE
  8
0
 62
     0
 10
171.348
 20
3.84471
 30
0.0
 11
171.293
 21
3.69729
 31
0.0
  0
LINE
  8
0
 62
     0
 10
171.293
 20
3.69729
 30
0.0
 11
171.25
 21
3.5457
 31
0.0
  0
LINE
  8
0
 62
     0
 10
171.25
 20
3.5457
 30
0.0
 11
171.22
 21
3.39135
 31
0.0
  0
LINE
  8
0
 62
     0
 10
171.22
 20
3.39135
 30
0.0
 11
171.202
 21
3.23564
 31
0.0
  0
LINE
  8
0
 62
     0
 10
171.202
 20
3.23564
 30
0.0
 11
171.195
 21
3.07992
 31
0.0
  0
LINE
  8
0
 62
     0
 10
171.195
 20
3.07992
 30
0.0
 11
171.202
 21
2.92282
 31
0.0
  0
LINE
  8
0
 62
     0
 10
171.202
 20
2.92282
 30
0.0
 11
171.22
 21
2.7671
 31
0.0
  0
LINE
  8
0
 62
     0
 10
171.22
 20
2.7671
 30
0.0
 11
171.25
 21
2.61276
 31
0.0
  0
LINE
  8
0
 62
     0
 10
171.25
 20
2.61276
 30
0.0
 11
171.293
 21
2.46118
 31
0.0
  0
LINE
  8
0
 62
     0
 10
171.293
 20
2.46118
 30
0.0
 11
171.348
 21
2.31372
 31
0.0
  0
LINE
  8
0
 62
     0
 10
171.348
 20
2.31372
 30
0.0
 11
171.413
 21
2.17179
 31
0.0
  0
LINE
  8
0
 62
     0
 10
171.413
 20
2.17179
 30
0.0
 11
171.49
 21
2.03536
 31
0.0
  0
LINE
  8
0
 62
     0
 10
171.49
 20
2.03536
 30
0.0
 11
171.577
 21
1.90445
 31
0.0
  0
LINE
  8
0
 62
     0
 10
171.577
 20
1.90445
 30
0.0
 11
171.675
 21
1.78043
 31
0.0
  0
LINE
  8
0
 62
     0
 10
171.675
 20
1.78043
 30
0.0
 11
171.781
 21
1.66467
 31
0.0
  0
LINE
  8
0
 62
     0
 10
171.781
 20
1.66467
 30
0.0
 11
171.897
 21
1.55856
 31
0.0
  0
LINE
  8
0
 62
     0
 10
171.897
 20
1.55856
 30
0.0
 11
172.019
 21
1.46072
 31
0.0
  0
LINE
  8
0
 62
     0
 10
172.019
 20
1.46072
 30
0.0
 11
172.151
 21
1.3739
 31
0.0
  0
LINE
  8
0
 62
     0
 10
172.151
 20
1.3739
 30
0.0
 11
172.288
 21
1.29673
 31
0.0
  0
LINE
  8
0
 62
     0
 10
172.288
 20
1.29673
 30
0.0
 11
172.43
 21
1.23197
 31
0.0
  0
LINE
  8
0
 62
     0
 10
172.43
 20
1.23197
 30
0.0
 11
172.577
 21
1.17685
 31
0.0
  0
LINE
  8
0
 62
     0
 10
172.577
 20
1.17685
 30
0.0
 11
172.729
 21
1.13412
 31
0.0
  0
LINE
  8
0
 62
     0
 10
172.729
 20
1.13412
 30
0.0
 11
172.883
 21
1.10381
 31
0.0
  0
LINE
  8
0
 62
     0
 10
172.883
 20
1.10381
 30
0.0
 11
173.039
 21
1.0859
 31
0.0
  0
LINE
  8
0
 62
     0
 10
173.039
 20
1.0859
 30
0.0
 11
173.196
 21
1.08038
 31
0.0
  0
LINE
  8
0
 62
     0
 10
173.196
 20
1.08038
 30
0.0
 11
173.352
 21
1.0859
 31
0.0
  0
LINE
  8
0
 62
     0
 10
173.352
 20
1.0859
 30
0.0
 11
173.507
 21
1.10381
 31
0.0
  0
LINE
  8
0
 62
     0
 10
173.507
 20
1.10381
 30
0.0
 11
173.662
 21
1.13412
 31
0.0
  0
LINE
  8
0
 62
     0
 10
173.662
 20
1.13412
 30
0.0
 11
173.813
 21
1.17685
 31
0.0
  0
LINE
  8
0
 62
     0
 10
173.813
 20
1.17685
 30
0.0
 11
173.961
 21
1.23197
 31
0.0
  0
LINE
  8
0
 62
     0
 10
173.961
 20
1.23197
 30
0.0
 11
174.103
 21
1.29673
 31
0.0
  0
LINE
  8
0
 62
     0
 10
174.103
 20
1.29673
 30
0.0
 11
174.239
 21
1.3739
 31
0.0
  0
LINE
  8
0
 62
     0
 10
174.239
 20
1.3739
 30
0.0
 11
174.37
 21
1.46072
 31
0.0
  0
LINE
  8
0
 62
     0
 10
174.37
 20
1.46072
 30
0.0
 11
174.494
 21
1.55856
 31
0.0
  0
LINE
  8
0
 62
     0
 10
174.494
 20
1.55856
 30
0.0
 11
174.61
 21
1.66467
 31
0.0
  0
LINE
  8
0
 62
     0
 10
174.61
 20
1.66467
 30
0.0
 11
174.716
 21
1.78043
 31
0.0
  0
LINE
  8
0
 62
     0
 10
174.716
 20
1.78043
 30
0.0
 11
174.814
 21
1.90445
 31
0.0
  0
LINE
  8
0
 62
     0
 10
174.814
 20
1.90445
 30
0.0
 11
174.901
 21
2.03536
 31
0.0
  0
LINE
  8
0
 62
     0
 10
174.901
 20
2.03536
 30
0.0
 11
174.978
 21
2.17179
 31
0.0
  0
LINE
  8
0
 62
     0
 10
174.978
 20
2.17179
 30
0.0
 11
175.043
 21
2.31372
 31
0.0
  0
LINE
  8
0
 62
     0
 10
175.043
 20
2.31372
 30
0.0
 11
175.098
 21
2.46118
 31
0.0
  0
LINE
  8
0
 62
     0
 10
175.098
 20
2.46118
 30
0.0
 11
175.14
 21
2.61276
 31
0.0
  0
LINE
  8
0
 62
     0
 10
175.14
 20
2.61276
 30
0.0
 11
175.171
 21
2.7671
 31
0.0
  0
LINE
  8
0
 62
     0
 10
175.171
 20
2.7671
 30
0.0
 11
175.189
 21
2.92282
 31
0.0
  0
LINE
  8
0
 62
     0
 10
175.189
 20
2.92282
 30
0.0
 11
175.195
 21
3.07992
 31
0.0
  0
LINE
  8
0
 62
     0
 10
175.195
 20
3.07992
 30
0.0
 11
175.189
 21
3.23564
 31
0.0
  0
LINE
  8
0
 62
     0
 10
175.189
 20
3.23564
 30
0.0
 11
175.171
 21
3.39135
 31
0.0
  0
LINE
  8
0
 62
     0
 10
175.171
 20
3.39135
 30
0.0
 11
175.14
 21
3.5457
 31
0.0
  0
LINE
  8
0
 62
     0
 10
175.14
 20
3.5457
 30
0.0
 11
175.098
 21
3.69729
 31
0.0
  0
LINE
  8
0
 62
     0
 10
175.098
 20
3.69729
 30
0.0
 11
175.043
 21
3.84471
 31
0.0
  0
LINE
  8
0
 62
     0
 10
175.043
 20
3.84471
 30
0.0
 11
174.978
 21
3.98667
 31
0.0
  0
LINE
  8
0
 62
     0
 10
174.978
 20
3.98667
 30
0.0
 11
174.901
 21
4.12309
 31
0.0
  0
LINE
  8
0
 62
     0
 10
174.901
 20
4.12309
 30
0.0
 11
174.814
 21
4.25538
 31
0.0
  0
LINE
  8
0
 62
     0
 10
174.814
 20
4.25538
 30
0.0
 11
174.716
 21
4.37804
 31
0.0
  0
LINE
  8
0
 62
     0
 10
174.716
 20
4.37804
 30
0.0
 11
174.61
 21
4.49379
 31
0.0
  0
LINE
  8
0
 62
     0
 10
174.61
 20
4.49379
 30
0.0
 11
174.494
 21
4.5999
 31
0.0
  0
LINE
  8
0
 62
     0
 10
174.494
 20
4.5999
 30
0.0
 11
174.37
 21
4.69773
 31
0.0
  0
LINE
  8
0
 62
     0
 10
174.37
 20
4.69773
 30
0.0
 11
174.239
 21
4.78455
 31
0.0
  0
LINE
  8
0
 62
     0
 10
174.239
 20
4.78455
 30
0.0
 11
174.103
 21
4.86174
 31
0.0
  0
LINE
  8
0
 62
     0
 10
174.103
 20
4.86174
 30
0.0
 11
173.961
 21
4.92647
 31
0.0
  0
LINE
  8
0
 62
     0
 10
173.961
 20
4.92647
 30
0.0
 11
173.813
 21
4.98161
 31
0.0
  0
LINE
  8
0
 62
     0
 10
173.813
 20
4.98161
 30
0.0
 11
173.662
 21
5.02433
 31
0.0
  0
LINE
  8
0
 62
     0
 10
173.662
 20
5.02433
 30
0.0
 11
173.507
 21
5.05464
 31
0.0
  0
LINE
  8
0
 62
     0
 10
173.507
 20
5.05464
 30
0.0
 11
173.352
 21
5.07256
 31
0.0
  0
LINE
  8
0
 62
     0
 10
173.352
 20
5.07256
 30
0.0
 11
173.196
 21
5.07944
 31
0.0
  0
LINE
  8
0
 62
     0
 10
173.196
 20
5.07944
 30
0.0
 11
173.039
 21
5.07256
 31
0.0
  0
LINE
  8
0
 62
     0
 10
171.388
 20
23.0766
 30
0.0
 11
171.388
 21
22.1051
 31
0.0
  0
LINE
  8
0
 62
     0
 10
171.388
 20
22.1051
 30
0.0
 11
168.425
 21
22.1051
 31
0.0
  0
LINE
  8
0
 62
     0
 10
168.425
 20
22.1051
 30
0.0
 11
168.425
 21
17.406
 31
0.0
  0
LINE
  8
0
 62
     0
 10
168.425
 20
17.406
 30
0.0
 11
152.601
 21
17.406
 31
0.0
  0
LINE
  8
0
 62
     0
 10
152.601
 20
17.406
 30
0.0
 11
152.601
 21
21.875
 31
0.0
  0
LINE
  8
0
 62
     0
 10
152.601
 20
21.875
 30
0.0
 11
150.876
 21
21.875
 31
0.0
  0
LINE
  8
0
 62
     0
 10
150.876
 20
21.875
 30
0.0
 11
150.876
 21
23.0753
 31
0.0
  0
LINE
  8
0
 62
     0
 10
150.876
 20
23.0753
 30
0.0
 11
147.575
 21
23.0753
 31
0.0
  0
LINE
  8
0
 62
     0
 10
147.575
 20
23.0753
 30
0.0
 11
147.575
 21
21.875
 31
0.0
  0
LINE
  8
0
 62
     0
 10
147.575
 20
21.875
 30
0.0
 11
145.85
 21
21.875
 31
0.0
  0
LINE
  8
0
 62
     0
 10
145.85
 20
21.875
 30
0.0
 11
145.85
 21
17.406
 31
0.0
  0
LINE
  8
0
 62
     0
 10
145.85
 20
17.406
 30
0.0
 11
144.326
 21
17.406
 31
0.0
  0
LINE
  8
0
 62
     0
 10
144.326
 20
17.406
 30
0.0
 11
144.326
 21
22.1051
 31
0.0
  0
LINE
  8
0
 62
     0
 10
144.326
 20
22.1051
 30
0.0
 11
127.076
 21
22.1051
 31
0.0
  0
LINE
  8
0
 62
     0
 10
127.076
 20
22.1051
 30
0.0
 11
127.076
 21
23.0753
 31
0.0
  0
LINE
  8
0
 62
     0
 10
127.076
 20
23.0753
 30
0.0
 11
123.775
 21
23.0753
 31
0.0
  0
LINE
  8
0
 62
     0
 10
123.775
 20
23.0753
 30
0.0
 11
123.775
 21
22.1051
 31
0.0
  0
LINE
  8
0
 62
     0
 10
123.775
 20
22.1051
 30
0.0
 11
116.038
 21
22.1051
 31
0.0
  0
LINE
  8
0
 62
     0
 10
116.038
 20
22.1051
 30
0.0
 11
116.038
 21
17.4046
 31
0.0
  0
LINE
  8
0
 62
     0
 10
116.038
 20
17.4046
 30
0.0
 11
104.976
 21
17.4046
 31
0.0
  0
LINE
  8
0
 62
     0
 10
104.976
 20
17.4046
 30
0.0
 11
104.976
 21
21.875
 31
0.0
  0
LINE
  8
0
 62
     0
 10
104.976
 20
21.875
 30
0.0
 11
103.251
 21
21.875
 31
0.0
  0
LINE
  8
0
 62
     0
 10
103.251
 20
21.875
 30
0.0
 11
103.251
 21
23.0753
 31
0.0
  0
LINE
  8
0
 62
     0
 10
103.251
 20
23.0753
 30
0.0
 11
99.9504
 21
23.0753
 31
0.0
  0
LINE
  8
0
 62
     0
 10
99.9504
 20
23.0753
 30
0.0
 11
99.9504
 21
21.875
 31
0.0
  0
LINE
  8
0
 62
     0
 10
99.9504
 20
21.875
 30
0.0
 11
98.2253
 21
21.875
 31
0.0
  0
LINE
  8
0
 62
     0
 10
98.2253
 20
21.875
 30
0.0
 11
98.2253
 21
17.4046
 31
0.0
  0
LINE
  8
0
 62
     0
 10
98.2253
 20
17.4046
 30
0.0
 11
96.701
 21
17.4046
 31
0.0
  0
LINE
  8
0
 62
     0
 10
96.701
 20
17.4046
 30
0.0
 11
96.701
 21
22.1051
 31
0.0
  0
LINE
  8
0
 62
     0
 10
96.701
 20
22.1051
 30
0.0
 11
82.7003
 21
22.1051
 31
0.0
  0
LINE
  8
0
 62
     0
 10
82.7003
 20
22.1051
 30
0.0
 11
82.7003
 21
17.4046
 31
0.0
  0
LINE
  8
0
 62
     0
 10
82.7003
 20
17.4046
 30
0.0
 11
81.1759
 21
17.4046
 31
0.0
  0
LINE
  8
0
 62
     0
 10
81.1759
 20
17.4046
 30
0.0
 11
81.1759
 21
21.875
 31
0.0
  0
LINE
  8
0
 62
     0
 10
81.1759
 20
21.875
 30
0.0
 11
79.4508
 21
21.875
 31
0.0
  0
LINE
  8
0
 62
     0
 10
79.4508
 20
21.875
 30
0.0
 11
79.4508
 21
23.0753
 31
0.0
  0
LINE
  8
0
 62
     0
 10
79.4508
 20
23.0753
 30
0.0
 11
76.1503
 21
23.0753
 31
0.0
  0
LINE
  8
0
 62
     0
 10
76.1503
 20
23.0753
 30
0.0
 11
76.1503
 21
21.875
 31
0.0
  0
LINE
  8
0
 62
     0
 10
76.1503
 20
21.875
 30
0.0
 11
74.6883
 21
21.875
 31
0.0
  0
LINE
  8
0
 62
     0
 10
74.6883
 20
21.875
 30
0.0
 11
74.6883
 21
23.0753
 31
0.0
  0
LINE
  8
0
 62
     0
 10
74.6883
 20
23.0753
 30
0.0
 11
71.3878
 21
23.0753
 31
0.0
  0
LINE
  8
0
 62
     0
 10
71.3878
 20
23.0753
 30
0.0
 11
71.3878
 21
21.875
 31
0.0
  0
LINE
  8
0
 62
     0
 10
71.3878
 20
21.875
 30
0.0
 11
69.6627
 21
21.875
 31
0.0
  0
LINE
  8
0
 62
     0
 10
69.6627
 20
21.875
 30
0.0
 11
69.6627
 21
17.4046
 31
0.0
  0
LINE
  8
0
 62
     0
 10
69.6627
 20
17.4046
 30
0.0
 11
68.8372
 21
17.4046
 31
0.0
  0
LINE
  8
0
 62
     0
 10
68.8372
 20
17.4046
 30
0.0
 11
68.8372
 21
12.8047
 31
0.0
  0
LINE
  8
0
 62
     0
 10
68.8372
 20
12.8047
 30
0.0
 11
69.6627
 21
12.8047
 31
0.0
  0
LINE
  8
0
 62
     0
 10
69.6627
 20
12.8047
 30
0.0
 11
69.6627
 21
8.33438
 31
0.0
  0
LINE
  8
0
 62
     0
 10
69.6627
 20
8.33438
 30
0.0
 11
71.3878
 21
8.33438
 31
0.0
  0
LINE
  8
0
 62
     0
 10
71.3878
 20
8.33438
 30
0.0
 11
71.3878
 21
7.13412
 31
0.0
  0
LINE
  8
0
 62
     0
 10
71.3878
 20
7.13412
 30
0.0
 11
74.6883
 21
7.13412
 31
0.0
  0
LINE
  8
0
 62
     0
 10
74.6883
 20
7.13412
 30
0.0
 11
74.6883
 21
8.33438
 31
0.0
  0
LINE
  8
0
 62
     0
 10
74.6883
 20
8.33438
 30
0.0
 11
76.1503
 21
8.33438
 31
0.0
  0
LINE
  8
0
 62
     0
 10
76.1503
 20
8.33438
 30
0.0
 11
76.1503
 21
7.13412
 31
0.0
  0
LINE
  8
0
 62
     0
 10
76.1503
 20
7.13412
 30
0.0
 11
79.4508
 21
7.13412
 31
0.0
  0
LINE
  8
0
 62
     0
 10
79.4508
 20
7.13412
 30
0.0
 11
79.4508
 21
8.33438
 31
0.0
  0
LINE
  8
0
 62
     0
 10
79.4508
 20
8.33438
 30
0.0
 11
81.1759
 21
8.33438
 31
0.0
  0
LINE
  8
0
 62
     0
 10
81.1759
 20
8.33438
 30
0.0
 11
81.1759
 21
12.8047
 31
0.0
  0
LINE
  8
0
 62
     0
 10
81.1759
 20
12.8047
 30
0.0
 11
82.7003
 21
12.8047
 31
0.0
  0
LINE
  8
0
 62
     0
 10
82.7003
 20
12.8047
 30
0.0
 11
82.7003
 21
8.10426
 31
0.0
  0
LINE
  8
0
 62
     0
 10
82.7003
 20
8.10426
 30
0.0
 11
96.701
 21
8.10426
 31
0.0
  0
LINE
  8
0
 62
     0
 10
96.701
 20
8.10426
 30
0.0
 11
96.701
 21
12.8047
 31
0.0
  0
LINE
  8
0
 62
     0
 10
96.701
 20
12.8047
 30
0.0
 11
98.2253
 21
12.8047
 31
0.0
  0
LINE
  8
0
 62
     0
 10
98.2253
 20
12.8047
 30
0.0
 11
98.2253
 21
8.33438
 31
0.0
  0
LINE
  8
0
 62
     0
 10
98.2253
 20
8.33438
 30
0.0
 11
99.9504
 21
8.33438
 31
0.0
  0
LINE
  8
0
 62
     0
 10
99.9504
 20
8.33438
 30
0.0
 11
99.9504
 21
7.13412
 31
0.0
  0
LINE
  8
0
 62
     0
 10
99.9504
 20
7.13412
 30
0.0
 11
103.251
 21
7.13412
 31
0.0
  0
LINE
  8
0
 62
     0
 10
103.251
 20
7.13412
 30
0.0
 11
103.251
 21
8.33438
 31
0.0
  0
LINE
  8
0
 62
     0
 10
103.251
 20
8.33438
 30
0.0
 11
104.976
 21
8.33438
 31
0.0
  0
LINE
  8
0
 62
     0
 10
104.976
 20
8.33438
 30
0.0
 11
104.976
 21
12.8047
 31
0.0
  0
LINE
  8
0
 62
     0
 10
104.976
 20
12.8047
 30
0.0
 11
116.038
 21
12.8047
 31
0.0
  0
LINE
  8
0
 62
     0
 10
116.038
 20
12.8047
 30
0.0
 11
116.038
 21
8.10426
 31
0.0
  0
LINE
  8
0
 62
     0
 10
116.038
 20
8.10426
 30
0.0
 11
123.775
 21
8.10426
 31
0.0
  0
LINE
  8
0
 62
     0
 10
123.775
 20
8.10426
 30
0.0
 11
123.775
 21
7.13412
 31
0.0
  0
LINE
  8
0
 62
     0
 10
123.775
 20
7.13412
 30
0.0
 11
127.076
 21
7.13412
 31
0.0
  0
LINE
  8
0
 62
     0
 10
127.076
 20
7.13412
 30
0.0
 11
127.076
 21
8.10426
 31
0.0
  0
LINE
  8
0
 62
     0
 10
127.076
 20
8.10426
 30
0.0
 11
144.326
 21
8.10426
 31
0.0
  0
LINE
  8
0
 62
     0
 10
144.326
 20
8.10426
 30
0.0
 11
144.326
 21
12.8047
 31
0.0
  0
LINE
  8
0
 62
     0
 10
144.326
 20
12.8047
 30
0.0
 11
145.85
 21
12.8047
 31
0.0
  0
LINE
  8
0
 62
     0
 10
145.85
 20
12.8047
 30
0.0
 11
145.85
 21
8.33438
 31
0.0
  0
LINE
  8
0
 62
     0
 10
145.85
 20
8.33438
 30
0.0
 11
147.575
 21
8.33438
 31
0.0
  0
LINE
  8
0
 62
     0
 10
147.575
 20
8.33438
 30
0.0
 11
147.575
 21
7.13412
 31
0.0
  0
LINE
  8
0
 62
     0
 10
147.575
 20
7.13412
 30
0.0
 11
150.876
 21
7.13412
 31
0.0
  0
LINE
  8
0
 62
     0
 10
150.876
 20
7.13412
 30
0.0
 11
150.876
 21
8.33438
 31
0.0
  0
LINE
  8
0
 62
     0
 10
150.876
 20
8.33438
 30
0.0
 11
152.601
 21
8.33438
 31
0.0
  0
LINE
  8
0
 62
     0
 10
152.601
 20
8.33438
 30
0.0
 11
152.601
 21
12.8047
 31
0.0
  0
LINE
  8
0
 62
     0
 10
152.601
 20
12.8047
 30
0.0
 11
168.425
 21
12.8047
 31
0.0
  0
LINE
  8
0
 62
     0
 10
168.425
 20
12.8047
 30
0.0
 11
168.425
 21
8.10426
 31
0.0
  0
LINE
  8
0
 62
     0
 10
168.425
 20
8.10426
 30
0.0
 11
171.388
 21
8.10426
 31
0.0
  0
LINE
  8
0
 62
     0
 10
171.388
 20
8.10426
 30
0.0
 11
171.388
 21
7.13412
 31
0.0
  0
LINE
  8
0
 62
     0
 10
171.388
 20
7.13412
 30
0.0
 11
174.688
 21
7.13412
 31
0.0
  0
LINE
  8
0
 62
     0
 10
174.688
 20
7.13412
 30
0.0
 11
174.688
 21
8.10426
 31
0.0
  0
LINE
  8
0
 62
     0
 10
174.688
 20
8.10426
 30
0.0
 11
182.426
 21
8.10426
 31
0.0
  0
LINE
  8
0
 62
     0
 10
182.426
 20
8.10426
 30
0.0
 11
182.426
 21
22.1051
 31
0.0
  0
LINE
  8
0
 62
     0
 10
182.426
 20
22.1051
 30
0.0
 11
174.688
 21
22.1051
 31
0.0
  0
LINE
  8
0
 62
     0
 10
174.688
 20
22.1051
 30
0.0
 11
174.688
 21
23.0766
 31
0.0
  0
LINE
  8
0
 62
     0
 10
174.688
 20
23.0766
 30
0.0
 11
171.388
 21
23.0766
 31
0.0
  0
LINE
  8
0
 62
     0
 10
6.50021
 20
22.1051
 30
0.0
 11
20.5011
 21
22.1051
 31
0.0
  0
LINE
  8
0
 62
     0
 10
20.5011
 20
22.1051
 30
0.0
 11
20.5011
 21
8.10426
 31
0.0
  0
LINE
  8
0
 62
     0
 10
20.5011
 20
8.10426
 30
0.0
 11
6.50021
 21
8.10426
 31
0.0
  0
LINE
  8
0
 62
     0
 10
6.50021
 20
8.10426
 30
0.0
 11
6.50021
 21
22.1051
 31
0.0
  0
LINE
  8
0
 62
     0
 10
27.9315
 20
22.1051
 30
0.0
 11
41.9322
 21
22.1051
 31
0.0
  0
LINE
  8
0
 62
     0
 10
41.9322
 20
22.1051
 30
0.0
 11
41.9322
 21
8.10426
 31
0.0
  0
LINE
  8
0
 62
     0
 10
41.9322
 20
8.10426
 30
0.0
 11
27.9315
 21
8.10426
 31
0.0
  0
LINE
  8
0
 62
     0
 10
27.9315
 20
8.10426
 30
0.0
 11
27.9315
 21
22.1051
 31
0.0
  0
LINE
  8
0
 62
     0
 10
46.9815
 20
22.1051
 30
0.0
 11
63.3621
 21
22.1051
 31
0.0
  0
LINE
  8
0
 62
     0
 10
63.3621
 20
22.1051
 30
0.0
 11
63.3621
 21
8.10426
 31
0.0
  0
LINE
  8
0
 62
     0
 10
63.3621
 20
8.10426
 30
0.0
 11
46.9815
 21
8.10426
 31
0.0
  0
LINE
  8
0
 62
     0
 10
46.9815
 20
8.10426
 30
0.0
 11
46.9815
 21
22.1051
 31
0.0
  0
LINE
  8
0
 62
     0
 10
187.475
 20
22.1051
 30
0.0
 11
203.857
 21
22.1051
 31
0.0
  0
LINE
  8
0
 62
     0
 10
203.857
 20
22.1051
 30
0.0
 11
203.857
 21
8.10426
 31
0.0
  0
LINE
  8
0
 62
     0
 10
203.857
 20
8.10426
 30
0.0
 11
187.475
 21
8.10426
 31
0.0
  0
LINE
  8
0
 62
     0
 10
187.475
 20
8.10426
 30
0.0
 11
187.475
 21
22.1051
 31
0.0
  0
LINE
  8
0
 62
     0
 10
211.288
 20
22.1051
 30
0.0
 11
225.287
 21
22.1051
 31
0.0
  0
LINE
  8
0
 62
     0
 10
225.287
 20
22.1051
 30
0.0
 11
225.287
 21
8.10426
 31
0.0
  0
LINE
  8
0
 62
     0
 10
225.287
 20
8.10426
 30
0.0
 11
211.288
 21
8.10426
 31
0.0
  0
LINE
  8
0
 62
     0
 10
211.288
 20
8.10426
 30
0.0
 11
211.288
 21
22.1051
 31
0.0
  0
LINE
  8
0
 62
     0
 10
11.2627
 20
41.1551
 30
0.0
 11
25.2622
 21
41.1551
 31
0.0
  0
LINE
  8
0
 62
     0
 10
25.2622
 20
41.1551
 30
0.0
 11
25.2622
 21
27.1543
 31
0.0
  0
LINE
  8
0
 62
     0
 10
25.2622
 20
27.1543
 30
0.0
 11
11.2627
 21
27.1543
 31
0.0
  0
LINE
  8
0
 62
     0
 10
11.2627
 20
27.1543
 30
0.0
 11
11.2627
 21
41.1551
 31
0.0
  0
LINE
  8
0
 62
     0
 10
37.4565
 20
41.1551
 30
0.0
 11
51.4572
 21
41.1551
 31
0.0
  0
LINE
  8
0
 62
     0
 10
51.4572
 20
41.1551
 30
0.0
 11
51.4572
 21
27.1543
 31
0.0
  0
LINE
  8
0
 62
     0
 10
51.4572
 20
27.1543
 30
0.0
 11
37.4565
 21
27.1543
 31
0.0
  0
LINE
  8
0
 62
     0
 10
37.4565
 20
27.1543
 30
0.0
 11
37.4565
 21
41.1551
 31
0.0
  0
LINE
  8
0
 62
     0
 10
56.5065
 20
41.1551
 30
0.0
 11
70.5072
 21
41.1551
 31
0.0
  0
LINE
  8
0
 62
     0
 10
70.5072
 20
41.1551
 30
0.0
 11
70.5072
 21
27.1543
 31
0.0
  0
LINE
  8
0
 62
     0
 10
70.5072
 20
27.1543
 30
0.0
 11
56.5065
 21
27.1543
 31
0.0
  0
LINE
  8
0
 62
     0
 10
56.5065
 20
27.1543
 30
0.0
 11
56.5065
 21
41.1551
 31
0.0
  0
LINE
  8
0
 62
     0
 10
75.5565
 20
41.1551
 30
0.0
 11
89.5572
 21
41.1551
 31
0.0
  0
LINE
  8
0
 62
     0
 10
89.5572
 20
41.1551
 30
0.0
 11
89.5572
 21
27.1543
 31
0.0
  0
LINE
  8
0
 62
     0
 10
89.5572
 20
27.1543
 30
0.0
 11
75.5565
 21
27.1543
 31
0.0
  0
LINE
  8
0
 62
     0
 10
75.5565
 20
27.1543
 30
0.0
 11
75.5565
 21
41.1551
 31
0.0
  0
LINE
  8
0
 62
     0
 10
94.6065
 20
41.1551
 30
0.0
 11
108.607
 21
41.1551
 31
0.0
  0
LINE
  8
0
 62
     0
 10
108.607
 20
41.1551
 30
0.0
 11
108.607
 21
27.1543
 31
0.0
  0
LINE
  8
0
 62
     0
 10
108.607
 20
27.1543
 30
0.0
 11
94.6065
 21
27.1543
 31
0.0
  0
LINE
  8
0
 62
     0
 10
94.6065
 20
27.1543
 30
0.0
 11
94.6065
 21
41.1551
 31
0.0
  0
LINE
  8
0
 62
     0
 10
113.657
 20
41.1551
 30
0.0
 11
127.657
 21
41.1551
 31
0.0
  0
LINE
  8
0
 62
     0
 10
127.657
 20
41.1551
 30
0.0
 11
127.657
 21
27.1543
 31
0.0
  0
LINE
  8
0
 62
     0
 10
127.657
 20
27.1543
 30
0.0
 11
113.657
 21
27.1543
 31
0.0
  0
LINE
  8
0
 62
     0
 10
113.657
 20
27.1543
 30
0.0
 11
113.657
 21
41.1551
 31
0.0
  0
LINE
  8
0
 62
     0
 10
132.707
 20
41.1551
 30
0.0
 11
146.707
 21
41.1551
 31
0.0
  0
LINE
  8
0
 62
     0
 10
146.707
 20
41.1551
 30
0.0
 11
146.707
 21
27.1543
 31
0.0
  0
LINE
  8
0
 62
     0
 10
146.707
 20
27.1543
 30
0.0
 11
132.707
 21
27.1543
 31
0.0
  0
LINE
  8
0
 62
     0
 10
132.707
 20
27.1543
 30
0.0
 11
132.707
 21
41.1551
 31
0.0
  0
LINE
  8
0
 62
     0
 10
151.757
 20
41.1551
 30
0.0
 11
165.757
 21
41.1551
 31
0.0
  0
LINE
  8
0
 62
     0
 10
165.757
 20
41.1551
 30
0.0
 11
165.757
 21
27.1543
 31
0.0
  0
LINE
  8
0
 62
     0
 10
165.757
 20
27.1543
 30
0.0
 11
151.757
 21
27.1543
 31
0.0
  0
LINE
  8
0
 62
     0
 10
151.757
 20
27.1543
 30
0.0
 11
151.757
 21
41.1551
 31
0.0
  0
LINE
  8
0
 62
     0
 10
170.807
 20
41.1551
 30
0.0
 11
184.807
 21
41.1551
 31
0.0
  0
LINE
  8
0
 62
     0
 10
184.807
 20
41.1551
 30
0.0
 11
184.807
 21
27.1543
 31
0.0
  0
LINE
  8
0
 62
     0
 10
184.807
 20
27.1543
 30
0.0
 11
170.807
 21
27.1543
 31
0.0
  0
LINE
  8
0
 62
     0
 10
170.807
 20
27.1543
 30
0.0
 11
170.807
 21
41.1551
 31
0.0
  0
LINE
  8
0
 62
     0
 10
189.857
 20
41.1551
 30
0.0
 11
206.237
 21
41.1551
 31
0.0
  0
LINE
  8
0
 62
     0
 10
206.237
 20
41.1551
 30
0.0
 11
206.237
 21
27.1543
 31
0.0
  0
LINE
  8
0
 62
     0
 10
206.237
 20
27.1543
 30
0.0
 11
189.857
 21
27.1543
 31
0.0
  0
LINE
  8
0
 62
     0
 10
189.857
 20
27.1543
 30
0.0
 11
189.857
 21
41.1551
 31
0.0
  0
LINE
  8
0
 62
     0
 10
211.288
 20
41.1551
 30
0.0
 11
227.67
 21
41.1551
 31
0.0
  0
LINE
  8
0
 62
     0
 10
227.67
 20
41.1551
 30
0.0
 11
227.67
 21
27.1543
 31
0.0
  0
LINE
  8
0
 62
     0
 10
227.67
 20
27.1543
 30
0.0
 11
211.288
 21
27.1543
 31
0.0
  0
LINE
  8
0
 62
     0
 10
211.288
 20
27.1543
 30
0.0
 11
211.288
 21
41.1551
 31
0.0
  0
LINE
  8
0
 62
     0
 10
6.50021
 20
60.2051
 30
0.0
 11
20.5011
 21
60.2051
 31
0.0
  0
LINE
  8
0
 62
     0
 10
20.5011
 20
60.2051
 30
0.0
 11
20.5011
 21
46.2044
 31
0.0
  0
LINE
  8
0
 62
     0
 10
20.5011
 20
46.2044
 30
0.0
 11
6.50021
 21
46.2044
 31
0.0
  0
LINE
  8
0
 62
     0
 10
6.50021
 20
46.2044
 30
0.0
 11
6.50021
 21
60.2051
 31
0.0
  0
LINE
  8
0
 62
     0
 10
27.9315
 20
60.2051
 30
0.0
 11
41.9322
 21
60.2051
 31
0.0
  0
LINE
  8
0
 62
     0
 10
41.9322
 20
60.2051
 30
0.0
 11
41.9322
 21
46.2044
 31
0.0
  0
LINE
  8
0
 62
     0
 10
41.9322
 20
46.2044
 30
0.0
 11
27.9315
 21
46.2044
 31
0.0
  0
LINE
  8
0
 62
     0
 10
27.9315
 20
46.2044
 30
0.0
 11
27.9315
 21
60.2051
 31
0.0
  0
LINE
  8
0
 62
     0
 10
46.9815
 20
60.2051
 30
0.0
 11
60.9822
 21
60.2051
 31
0.0
  0
LINE
  8
0
 62
     0
 10
60.9822
 20
60.2051
 30
0.0
 11
60.9822
 21
46.2044
 31
0.0
  0
LINE
  8
0
 62
     0
 10
60.9822
 20
46.2044
 30
0.0
 11
46.9815
 21
46.2044
 31
0.0
  0
LINE
  8
0
 62
     0
 10
46.9815
 20
46.2044
 30
0.0
 11
46.9815
 21
60.2051
 31
0.0
  0
LINE
  8
0
 62
     0
 10
66.0315
 20
60.2051
 30
0.0
 11
80.0322
 21
60.2051
 31
0.0
  0
LINE
  8
0
 62
     0
 10
80.0322
 20
60.2051
 30
0.0
 11
80.0322
 21
46.2044
 31
0.0
  0
LINE
  8
0
 62
     0
 10
80.0322
 20
46.2044
 30
0.0
 11
66.0315
 21
46.2044
 31
0.0
  0
LINE
  8
0
 62
     0
 10
66.0315
 20
46.2044
 30
0.0
 11
66.0315
 21
60.2051
 31
0.0
  0
LINE
  8
0
 62
     0
 10
85.0815
 20
60.2051
 30
0.0
 11
99.0822
 21
60.2051
 31
0.0
  0
LINE
  8
0
 62
     0
 10
99.0822
 20
60.2051
 30
0.0
 11
99.0822
 21
46.2044
 31
0.0
  0
LINE
  8
0
 62
     0
 10
99.0822
 20
46.2044
 30
0.0
 11
85.0815
 21
46.2044
 31
0.0
  0
LINE
  8
0
 62
     0
 10
85.0815
 20
46.2044
 30
0.0
 11
85.0815
 21
60.2051
 31
0.0
  0
LINE
  8
0
 62
     0
 10
104.132
 20
60.2051
 30
0.0
 11
118.132
 21
60.2051
 31
0.0
  0
LINE
  8
0
 62
     0
 10
118.132
 20
60.2051
 30
0.0
 11
118.132
 21
46.2044
 31
0.0
  0
LINE
  8
0
 62
     0
 10
118.132
 20
46.2044
 30
0.0
 11
104.132
 21
46.2044
 31
0.0
  0
LINE
  8
0
 62
     0
 10
104.132
 20
46.2044
 30
0.0
 11
104.132
 21
60.2051
 31
0.0
  0
LINE
  8
0
 62
     0
 10
123.18
 20
60.2051
 30
0.0
 11
137.182
 21
60.2051
 31
0.0
  0
LINE
  8
0
 62
     0
 10
137.182
 20
60.2051
 30
0.0
 11
137.182
 21
46.2044
 31
0.0
  0
LINE
  8
0
 62
     0
 10
137.182
 20
46.2044
 30
0.0
 11
123.18
 21
46.2044
 31
0.0
  0
LINE
  8
0
 62
     0
 10
123.18
 20
46.2044
 30
0.0
 11
123.18
 21
60.2051
 31
0.0
  0
LINE
  8
0
 62
     0
 10
142.232
 20
60.2051
 30
0.0
 11
156.232
 21
60.2051
 31
0.0
  0
LINE
  8
0
 62
     0
 10
156.232
 20
60.2051
 30
0.0
 11
156.232
 21
46.2044
 31
0.0
  0
LINE
  8
0
 62
     0
 10
156.232
 20
46.2044
 30
0.0
 11
142.232
 21
46.2044
 31
0.0
  0
LINE
  8
0
 62
     0
 10
142.232
 20
46.2044
 30
0.0
 11
142.232
 21
60.2051
 31
0.0
  0
LINE
  8
0
 62
     0
 10
161.282
 20
60.2051
 30
0.0
 11
175.282
 21
60.2051
 31
0.0
  0
LINE
  8
0
 62
     0
 10
175.282
 20
60.2051
 30
0.0
 11
175.282
 21
46.2044
 31
0.0
  0
LINE
  8
0
 62
     0
 10
175.282
 20
46.2044
 30
0.0
 11
161.282
 21
46.2044
 31
0.0
  0
LINE
  8
0
 62
     0
 10
161.282
 20
46.2044
 30
0.0
 11
161.282
 21
60.2051
 31
0.0
  0
LINE
  8
0
 62
     0
 10
180.332
 20
60.2051
 30
0.0
 11
194.332
 21
60.2051
 31
0.0
  0
LINE
  8
0
 62
     0
 10
194.332
 20
60.2051
 30
0.0
 11
194.332
 21
46.2044
 31
0.0
  0
LINE
  8
0
 62
     0
 10
194.332
 20
46.2044
 30
0.0
 11
180.332
 21
46.2044
 31
0.0
  0
LINE
  8
0
 62
     0
 10
180.332
 20
46.2044
 30
0.0
 11
180.332
 21
60.2051
 31
0.0
  0
LINE
  8
0
 62
     0
 10
206.525
 20
60.2051
 30
0.0
 11
220.526
 21
60.2051
 31
0.0
  0
LINE
  8
0
 62
     0
 10
220.526
 20
60.2051
 30
0.0
 11
220.526
 21
46.2044
 31
0.0
  0
LINE
  8
0
 62
     0
 10
220.526
 20
46.2044
 30
0.0
 11
206.525
 21
46.2044
 31
0.0
  0
LINE
  8
0
 62
     0
 10
206.525
 20
46.2044
 30
0.0
 11
206.525
 21
60.2051
 31
0.0
  0
LINE
  8
0
 62
     0
 10
4.11896
 20
79.2551
 30
0.0
 11
18.1198
 21
79.2551
 31
0.0
  0
LINE
  8
0
 62
     0
 10
18.1198
 20
79.2551
 30
0.0
 11
18.1198
 21
65.2544
 31
0.0
  0
LINE
  8
0
 62
     0
 10
18.1198
 20
65.2544
 30
0.0
 11
4.11896
 21
65.2544
 31
0.0
  0
LINE
  8
0
 62
     0
 10
4.11896
 20
65.2544
 30
0.0
 11
4.11896
 21
79.2551
 31
0.0
  0
LINE
  8
0
 62
     0
 10
23.1703
 20
79.2551
 30
0.0
 11
37.1697
 21
79.2551
 31
0.0
  0
LINE
  8
0
 62
     0
 10
37.1697
 20
79.2551
 30
0.0
 11
37.1697
 21
65.2544
 31
0.0
  0
LINE
  8
0
 62
     0
 10
37.1697
 20
65.2544
 30
0.0
 11
23.1703
 21
65.2544
 31
0.0
  0
LINE
  8
0
 62
     0
 10
23.1703
 20
65.2544
 30
0.0
 11
23.1703
 21
79.2551
 31
0.0
  0
LINE
  8
0
 62
     0
 10
42.2204
 20
79.2551
 30
0.0
 11
56.2197
 21
79.2551
 31
0.0
  0
LINE
  8
0
 62
     0
 10
56.2197
 20
79.2551
 30
0.0
 11
56.2197
 21
65.2544
 31
0.0
  0
LINE
  8
0
 62
     0
 10
56.2197
 20
65.2544
 30
0.0
 11
42.2204
 21
65.2544
 31
0.0
  0
LINE
  8
0
 62
     0
 10
42.2204
 20
65.2544
 30
0.0
 11
42.2204
 21
79.2551
 31
0.0
  0
LINE
  8
0
 62
     0
 10
61.2704
 20
79.2551
 30
0.0
 11
75.2697
 21
79.2551
 31
0.0
  0
LINE
  8
0
 62
     0
 10
75.2697
 20
79.2551
 30
0.0
 11
75.2697
 21
65.2544
 31
0.0
  0
LINE
  8
0
 62
     0
 10
75.2697
 20
65.2544
 30
0.0
 11
61.2704
 21
65.2544
 31
0.0
  0
LINE
  8
0
 62
     0
 10
61.2704
 20
65.2544
 30
0.0
 11
61.2704
 21
79.2551
 31
0.0
  0
LINE
  8
0
 62
     0
 10
80.3204
 20
79.2551
 30
0.0
 11
94.3197
 21
79.2551
 31
0.0
  0
LINE
  8
0
 62
     0
 10
94.3197
 20
79.2551
 30
0.0
 11
94.3197
 21
65.2544
 31
0.0
  0
LINE
  8
0
 62
     0
 10
94.3197
 20
65.2544
 30
0.0
 11
80.3204
 21
65.2544
 31
0.0
  0
LINE
  8
0
 62
     0
 10
80.3204
 20
65.2544
 30
0.0
 11
80.3204
 21
79.2551
 31
0.0
  0
LINE
  8
0
 62
     0
 10
99.369
 20
79.2551
 30
0.0
 11
113.368
 21
79.2551
 31
0.0
  0
LINE
  8
0
 62
     0
 10
113.368
 20
79.2551
 30
0.0
 11
113.368
 21
65.2544
 31
0.0
  0
LINE
  8
0
 62
     0
 10
113.368
 20
65.2544
 30
0.0
 11
99.369
 21
65.2544
 31
0.0
  0
LINE
  8
0
 62
     0
 10
99.369
 20
65.2544
 30
0.0
 11
99.369
 21
79.2551
 31
0.0
  0
LINE
  8
0
 62
     0
 10
118.419
 20
79.2551
 30
0.0
 11
132.42
 21
79.2551
 31
0.0
  0
LINE
  8
0
 62
     0
 10
132.42
 20
79.2551
 30
0.0
 11
132.42
 21
65.2544
 31
0.0
  0
LINE
  8
0
 62
     0
 10
132.42
 20
65.2544
 30
0.0
 11
118.419
 21
65.2544
 31
0.0
  0
LINE
  8
0
 62
     0
 10
118.419
 20
65.2544
 30
0.0
 11
118.419
 21
79.2551
 31
0.0
  0
LINE
  8
0
 62
     0
 10
137.47
 20
79.2551
 30
0.0
 11
151.47
 21
79.2551
 31
0.0
  0
LINE
  8
0
 62
     0
 10
151.47
 20
79.2551
 30
0.0
 11
151.47
 21
65.2544
 31
0.0
  0
LINE
  8
0
 62
     0
 10
151.47
 20
65.2544
 30
0.0
 11
137.47
 21
65.2544
 31
0.0
  0
LINE
  8
0
 62
     0
 10
137.47
 20
65.2544
 30
0.0
 11
137.47
 21
79.2551
 31
0.0
  0
LINE
  8
0
 62
     0
 10
156.52
 20
79.2551
 30
0.0
 11
170.52
 21
79.2551
 31
0.0
  0
LINE
  8
0
 62
     0
 10
170.52
 20
79.2551
 30
0.0
 11
170.52
 21
65.2544
 31
0.0
  0
LINE
  8
0
 62
     0
 10
170.52
 20
65.2544
 30
0.0
 11
156.52
 21
65.2544
 31
0.0
  0
LINE
  8
0
 62
     0
 10
156.52
 20
65.2544
 30
0.0
 11
156.52
 21
79.2551
 31
0.0
  0
LINE
  8
0
 62
     0
 10
175.57
 20
79.2551
 30
0.0
 11
189.57
 21
79.2551
 31
0.0
  0
LINE
  8
0
 62
     0
 10
189.57
 20
79.2551
 30
0.0
 11
189.57
 21
65.2544
 31
0.0
  0
LINE
  8
0
 62
     0
 10
189.57
 20
65.2544
 30
0.0
 11
175.57
 21
65.2544
 31
0.0
  0
LINE
  8
0
 62
     0
 10
175.57
 20
65.2544
 30
0.0
 11
175.57
 21
79.2551
 31
0.0
  0
LINE
  8
0
 62
     0
 10
194.62
 20
79.2551
 30
0.0
 11
208.62
 21
79.2551
 31
0.0
  0
LINE
  8
0
 62
     0
 10
208.62
 20
79.2551
 30
0.0
 11
208.62
 21
65.2544
 31
0.0
  0
LINE
  8
0
 62
     0
 10
208.62
 20
65.2544
 30
0.0
 11
194.62
 21
65.2544
 31
0.0
  0
LINE
  8
0
 62
     0
 10
194.62
 20
65.2544
 30
0.0
 11
194.62
 21
79.2551
 31
0.0
  0
LINE
  8
0
 62
     0
 10
213.67
 20
79.2551
 30
0.0
 11
227.67
 21
79.2551
 31
0.0
  0
LINE
  8
0
 62
     0
 10
227.67
 20
79.2551
 30
0.0
 11
227.67
 21
65.2544
 31
0.0
  0
LINE
  8
0
 62
     0
 10
227.67
 20
65.2544
 30
0.0
 11
213.67
 21
65.2544
 31
0.0
  0
LINE
  8
0
 62
     0
 10
213.67
 20
65.2544
 30
0.0
 11
213.67
 21
79.2551
 31
0.0
  0
LINE
  8
0
 62
     0
 10
58.4369
 20
86.275
 30
0.0
 11
58.2814
 21
86.2556
 31
0.0
  0
LINE
  8
0
 62
     0
 10
58.2814
 20
86.2556
 30
0.0
 11
58.1283
 21
86.2252
 31
0.0
  0
LINE
  8
0
 62
     0
 10
58.1283
 20
86.2252
 30
0.0
 11
57.9755
 21
86.1826
 31
0.0
  0
LINE
  8
0
 62
     0
 10
57.9755
 20
86.1826
 30
0.0
 11
57.8294
 21
86.1275
 31
0.0
  0
LINE
  8
0
 62
     0
 10
57.8294
 20
86.1275
 30
0.0
 11
57.6873
 21
86.0626
 31
0.0
  0
LINE
  8
0
 62
     0
 10
57.6873
 20
86.0626
 30
0.0
 11
57.5497
 21
85.9854
 31
0.0
  0
LINE
  8
0
 62
     0
 10
57.5497
 20
85.9854
 30
0.0
 11
57.4188
 21
85.8986
 31
0.0
  0
LINE
  8
0
 62
     0
 10
57.4188
 20
85.8986
 30
0.0
 11
57.2961
 21
85.8008
 31
0.0
  0
LINE
  8
0
 62
     0
 10
57.2961
 20
85.8008
 30
0.0
 11
57.1803
 21
85.6947
 31
0.0
  0
LINE
  8
0
 62
     0
 10
57.1803
 20
85.6947
 30
0.0
 11
57.0742
 21
85.5789
 31
0.0
  0
LINE
  8
0
 62
     0
 10
57.0742
 20
85.5789
 30
0.0
 11
56.9764
 21
85.4562
 31
0.0
  0
LINE
  8
0
 62
     0
 10
56.9764
 20
85.4562
 30
0.0
 11
56.8882
 21
85.3253
 31
0.0
  0
LINE
  8
0
 62
     0
 10
56.8882
 20
85.3253
 30
0.0
 11
56.8124
 21
85.1877
 31
0.0
  0
LINE
  8
0
 62
     0
 10
56.8124
 20
85.1877
 30
0.0
 11
56.7461
 21
85.0456
 31
0.0
  0
LINE
  8
0
 62
     0
 10
56.7461
 20
85.0456
 30
0.0
 11
56.691
 21
84.8981
 31
0.0
  0
LINE
  8
0
 62
     0
 10
56.691
 20
84.8981
 30
0.0
 11
56.6498
 21
84.7467
 31
0.0
  0
LINE
  8
0
 62
     0
 10
56.6498
 20
84.7467
 30
0.0
 11
56.618
 21
84.5922
 31
0.0
  0
LINE
  8
0
 62
     0
 10
56.618
 20
84.5922
 30
0.0
 11
56.6
 21
84.4367
 31
0.0
  0
LINE
  8
0
 62
     0
 10
56.6
 20
84.4367
 30
0.0
 11
56.5933
 21
84.2793
 31
0.0
  0
LINE
  8
0
 62
     0
 10
56.5933
 20
84.2793
 30
0.0
 11
56.6
 21
84.1237
 31
0.0
  0
LINE
  8
0
 62
     0
 10
56.6
 20
84.1237
 30
0.0
 11
56.618
 21
83.9682
 31
0.0
  0
LINE
  8
0
 62
     0
 10
56.618
 20
83.9682
 30
0.0
 11
56.6498
 21
83.8137
 31
0.0
  0
LINE
  8
0
 62
     0
 10
56.6498
 20
83.8137
 30
0.0
 11
56.691
 21
83.662
 31
0.0
  0
LINE
  8
0
 62
     0
 10
56.691
 20
83.662
 30
0.0
 11
56.7461
 21
83.5145
 31
0.0
  0
LINE
  8
0
 62
     0
 10
56.7461
 20
83.5145
 30
0.0
 11
56.8124
 21
83.3727
 31
0.0
  0
LINE
  8
0
 62
     0
 10
56.8124
 20
83.3727
 30
0.0
 11
56.8882
 21
83.2362
 31
0.0
  0
LINE
  8
0
 62
     0
 10
56.8882
 20
83.2362
 30
0.0
 11
56.9764
 21
83.1053
 31
0.0
  0
LINE
  8
0
 62
     0
 10
56.9764
 20
83.1053
 30
0.0
 11
57.0742
 21
82.9815
 31
0.0
  0
LINE
  8
0
 62
     0
 10
57.0742
 20
82.9815
 30
0.0
 11
57.1803
 21
82.8657
 31
0.0
  0
LINE
  8
0
 62
     0
 10
57.1803
 20
82.8657
 30
0.0
 11
57.2961
 21
82.7595
 31
0.0
  0
LINE
  8
0
 62
     0
 10
57.2961
 20
82.7595
 30
0.0
 11
57.4188
 21
82.6615
 31
0.0
  0
LINE
  8
0
 62
     0
 10
57.4188
 20
82.6615
 30
0.0
 11
57.5497
 21
82.5747
 31
0.0
  0
LINE
  8
0
 62
     0
 10
57.5497
 20
82.5747
 30
0.0
 11
57.6873
 21
82.4978
 31
0.0
  0
LINE
  8
0
 62
     0
 10
57.6873
 20
82.4978
 30
0.0
 11
57.8294
 21
82.4329
 31
0.0
  0
LINE
  8
0
 62
     0
 10
57.8294
 20
82.4329
 30
0.0
 11
57.9755
 21
82.3778
 31
0.0
  0
LINE
  8
0
 62
     0
 10
57.9755
 20
82.3778
 30
0.0
 11
58.1283
 21
82.3366
 31
0.0
  0
LINE
  8
0
 62
     0
 10
58.1283
 20
82.3366
 30
0.0
 11
58.2814
 21
82.3048
 31
0.0
  0
LINE
  8
0
 62
     0
 10
58.2814
 20
82.3048
 30
0.0
 11
58.4369
 21
82.2868
 31
0.0
  0
LINE
  8
0
 62
     0
 10
58.4369
 20
82.2868
 30
0.0
 11
58.5943
 21
82.2798
 31
0.0
  0
LINE
  8
0
 62
     0
 10
58.5943
 20
82.2798
 30
0.0
 11
58.7513
 21
82.2868
 31
0.0
  0
LINE
  8
0
 62
     0
 10
58.7513
 20
82.2868
 30
0.0
 11
58.9068
 21
82.3048
 31
0.0
  0
LINE
  8
0
 62
     0
 10
58.9068
 20
82.3048
 30
0.0
 11
59.0613
 21
82.3366
 31
0.0
  0
LINE
  8
0
 62
     0
 10
59.0613
 20
82.3366
 30
0.0
 11
59.2116
 21
82.3778
 31
0.0
  0
LINE
  8
0
 62
     0
 10
59.2116
 20
82.3778
 30
0.0
 11
59.3605
 21
82.4329
 31
0.0
  0
LINE
  8
0
 62
     0
 10
59.3605
 20
82.4329
 30
0.0
 11
59.5023
 21
82.4978
 31
0.0
  0
LINE
  8
0
 62
     0
 10
59.5023
 20
82.4978
 30
0.0
 11
59.6388
 21
82.5747
 31
0.0
  0
LINE
  8
0
 62
     0
 10
59.6388
 20
82.5747
 30
0.0
 11
59.7697
 21
82.6615
 31
0.0
  0
LINE
  8
0
 62
     0
 10
59.7697
 20
82.6615
 30
0.0
 11
59.8921
 21
82.7595
 31
0.0
  0
LINE
  8
0
 62
     0
 10
59.8921
 20
82.7595
 30
0.0
 11
60.0093
 21
82.8657
 31
0.0
  0
LINE
  8
0
 62
     0
 10
60.0093
 20
82.8657
 30
0.0
 11
60.114
 21
82.9815
 31
0.0
  0
LINE
  8
0
 62
     0
 10
60.114
 20
82.9815
 30
0.0
 11
60.2121
 21
83.1053
 31
0.0
  0
LINE
  8
0
 62
     0
 10
60.2121
 20
83.1053
 30
0.0
 11
60.3003
 21
83.2362
 31
0.0
  0
LINE
  8
0
 62
     0
 10
60.3003
 20
83.2362
 30
0.0
 11
60.3772
 21
83.3727
 31
0.0
  0
LINE
  8
0
 62
     0
 10
60.3772
 20
83.3727
 30
0.0
 11
60.4407
 21
83.5145
 31
0.0
  0
LINE
  8
0
 62
     0
 10
60.4407
 20
83.5145
 30
0.0
 11
60.4972
 21
83.662
 31
0.0
  0
LINE
  8
0
 62
     0
 10
60.4972
 20
83.662
 30
0.0
 11
60.5384
 21
83.8137
 31
0.0
  0
LINE
  8
0
 62
     0
 10
60.5384
 20
83.8137
 30
0.0
 11
60.5688
 21
83.9682
 31
0.0
  0
LINE
  8
0
 62
     0
 10
60.5688
 20
83.9682
 30
0.0
 11
60.5868
 21
84.1237
 31
0.0
  0
LINE
  8
0
 62
     0
 10
60.5868
 20
84.1237
 30
0.0
 11
60.5924
 21
84.2793
 31
0.0
  0
LINE
  8
0
 62
     0
 10
60.5924
 20
84.2793
 30
0.0
 11
60.5868
 21
84.4367
 31
0.0
  0
LINE
  8
0
 62
     0
 10
60.5868
 20
84.4367
 30
0.0
 11
60.5688
 21
84.5922
 31
0.0
  0
LINE
  8
0
 62
     0
 10
60.5688
 20
84.5922
 30
0.0
 11
60.5384
 21
84.7467
 31
0.0
  0
LINE
  8
0
 62
     0
 10
60.5384
 20
84.7467
 30
0.0
 11
60.4972
 21
84.8981
 31
0.0
  0
LINE
  8
0
 62
     0
 10
60.4972
 20
84.8981
 30
0.0
 11
60.4407
 21
85.0456
 31
0.0
  0
LINE
  8
0
 62
     0
 10
60.4407
 20
85.0456
 30
0.0
 11
60.3772
 21
85.1877
 31
0.0
  0
LINE
  8
0
 62
     0
 10
60.3772
 20
85.1877
 30
0.0
 11
60.3003
 21
85.3253
 31
0.0
  0
LINE
  8
0
 62
     0
 10
60.3003
 20
85.3253
 30
0.0
 11
60.2121
 21
85.4562
 31
0.0
  0
LINE
  8
0
 62
     0
 10
60.2121
 20
85.4562
 30
0.0
 11
60.114
 21
85.5789
 31
0.0
  0
LINE
  8
0
 62
     0
 10
60.114
 20
85.5789
 30
0.0
 11
60.0093
 21
85.6947
 31
0.0
  0
LINE
  8
0
 62
     0
 10
60.0093
 20
85.6947
 30
0.0
 11
59.8921
 21
85.8008
 31
0.0
  0
LINE
  8
0
 62
     0
 10
59.8921
 20
85.8008
 30
0.0
 11
59.7697
 21
85.8986
 31
0.0
  0
LINE
  8
0
 62
     0
 10
59.7697
 20
85.8986
 30
0.0
 11
59.6388
 21
85.9854
 31
0.0
  0
LINE
  8
0
 62
     0
 10
59.6388
 20
85.9854
 30
0.0
 11
59.5023
 21
86.0626
 31
0.0
  0
LINE
  8
0
 62
     0
 10
59.5023
 20
86.0626
 30
0.0
 11
59.3605
 21
86.1275
 31
0.0
  0
LINE
  8
0
 62
     0
 10
59.3605
 20
86.1275
 30
0.0
 11
59.2116
 21
86.1826
 31
0.0
  0
LINE
  8
0
 62
     0
 10
59.2116
 20
86.1826
 30
0.0
 11
59.0613
 21
86.2252
 31
0.0
  0
LINE
  8
0
 62
     0
 10
59.0613
 20
86.2252
 30
0.0
 11
58.9068
 21
86.2556
 31
0.0
  0
LINE
  8
0
 62
     0
 10
58.9068
 20
86.2556
 30
0.0
 11
58.7513
 21
86.275
 31
0.0
  0
LINE
  8
0
 62
     0
 10
58.7513
 20
86.275
 30
0.0
 11
58.5943
 21
86.2803
 31
0.0
  0
LINE
  8
0
 62
     0
 10
58.5943
 20
86.2803
 30
0.0
 11
58.4369
 21
86.275
 31
0.0
  0
LINE
  8
0
 62
     0
 10
173.039
 20
86.275
 30
0.0
 11
172.883
 21
86.2556
 31
0.0
  0
LINE
  8
0
 62
     0
 10
172.883
 20
86.2556
 30
0.0
 11
172.729
 21
86.2252
 31
0.0
  0
LINE
  8
0
 62
     0
 10
172.729
 20
86.2252
 30
0.0
 11
172.577
 21
86.1826
 31
0.0
  0
LINE
  8
0
 62
     0
 10
172.577
 20
86.1826
 30
0.0
 11
172.43
 21
86.1275
 31
0.0
  0
LINE
  8
0
 62
     0
 10
172.43
 20
86.1275
 30
0.0
 11
172.288
 21
86.0626
 31
0.0
  0
LINE
  8
0
 62
     0
 10
172.288
 20
86.0626
 30
0.0
 11
172.151
 21
85.9854
 31
0.0
  0
LINE
  8
0
 62
     0
 10
172.151
 20
85.9854
 30
0.0
 11
172.019
 21
85.8986
 31
0.0
  0
LINE
  8
0
 62
     0
 10
172.019
 20
85.8986
 30
0.0
 11
171.897
 21
85.8008
 31
0.0
  0
LINE
  8
0
 62
     0
 10
171.897
 20
85.8008
 30
0.0
 11
171.781
 21
85.6947
 31
0.0
  0
LINE
  8
0
 62
     0
 10
171.781
 20
85.6947
 30
0.0
 11
171.675
 21
85.5789
 31
0.0
  0
LINE
  8
0
 62
     0
 10
171.675
 20
85.5789
 30
0.0
 11
171.577
 21
85.4562
 31
0.0
  0
LINE
  8
0
 62
     0
 10
171.577
 20
85.4562
 30
0.0
 11
171.49
 21
85.3253
 31
0.0
  0
LINE
  8
0
 62
     0
 10
171.49
 20
85.3253
 30
0.0
 11
171.413
 21
85.1877
 31
0.0
  0
LINE
  8
0
 62
     0
 10
171.413
 20
85.1877
 30
0.0
 11
171.348
 21
85.0456
 31
0.0
  0
LINE
  8
0
 62
     0
 10
171.348
 20
85.0456
 30
0.0
 11
171.293
 21
84.8981
 31
0.0
  0
LINE
  8
0
 62
     0
 10
171.293
 20
84.8981
 30
0.0
 11
171.25
 21
84.7467
 31
0.0
  0
LINE
  8
0
 62
     0
 10
171.25
 20
84.7467
 30
0.0
 11
171.22
 21
84.5922
 31
0.0
  0
LINE
  8
0
 62
     0
 10
171.22
 20
84.5922
 30
0.0
 11
171.202
 21
84.4367
 31
0.0
  0
LINE
  8
0
 62
     0
 10
171.202
 20
84.4367
 30
0.0
 11
171.195
 21
84.2793
 31
0.0
  0
LINE
  8
0
 62
     0
 10
171.195
 20
84.2793
 30
0.0
 11
171.202
 21
84.1237
 31
0.0
  0
LINE
  8
0
 62
     0
 10
171.202
 20
84.1237
 30
0.0
 11
171.22
 21
83.9682
 31
0.0
  0
LINE
  8
0
 62
     0
 10
171.22
 20
83.9682
 30
0.0
 11
171.25
 21
83.8137
 31
0.0
  0
LINE
  8
0
 62
     0
 10
171.25
 20
83.8137
 30
0.0
 11
171.293
 21
83.662
 31
0.0
  0
LINE
  8
0
 62
     0
 10
171.293
 20
83.662
 30
0.0
 11
171.348
 21
83.5145
 31
0.0
  0
LINE
  8
0
 62
     0
 10
171.348
 20
83.5145
 30
0.0
 11
171.413
 21
83.3727
 31
0.0
  0
LINE
  8
0
 62
     0
 10
171.413
 20
83.3727
 30
0.0
 11
171.49
 21
83.2362
 31
0.0
  0
LINE
  8
0
 62
     0
 10
171.49
 20
83.2362
 30
0.0
 11
171.577
 21
83.1053
 31
0.0
  0
LINE
  8
0
 62
     0
 10
171.577
 20
83.1053
 30
0.0
 11
171.675
 21
82.9815
 31
0.0
  0
LINE
  8
0
 62
     0
 10
171.675
 20
82.9815
 30
0.0
 11
171.781
 21
82.8657
 31
0.0
  0
LINE
  8
0
 62
     0
 10
171.781
 20
82.8657
 30
0.0
 11
171.897
 21
82.7595
 31
0.0
  0
LINE
  8
0
 62
     0
 10
171.897
 20
82.7595
 30
0.0
 11
172.019
 21
82.6615
 31
0.0
  0
LINE
  8
0
 62
     0
 10
172.019
 20
82.6615
 30
0.0
 11
172.151
 21
82.5747
 31
0.0
  0
LINE
  8
0
 62
     0
 10
172.151
 20
82.5747
 30
0.0
 11
172.288
 21
82.4978
 31
0.0
  0
LINE
  8
0
 62
     0
 10
172.288
 20
82.4978
 30
0.0
 11
172.43
 21
82.4329
 31
0.0
  0
LINE
  8
0
 62
     0
 10
172.43
 20
82.4329
 30
0.0
 11
172.577
 21
82.3778
 31
0.0
  0
LINE
  8
0
 62
     0
 10
172.577
 20
82.3778
 30
0.0
 11
172.729
 21
82.3366
 31
0.0
  0
LINE
  8
0
 62
     0
 10
172.729
 20
82.3366
 30
0.0
 11
172.883
 21
82.3048
 31
0.0
  0
LINE
  8
0
 62
     0
 10
172.883
 20
82.3048
 30
0.0
 11
173.039
 21
82.2868
 31
0.0
  0
LINE
  8
0
 62
     0
 10
173.039
 20
82.2868
 30
0.0
 11
173.196
 21
82.2798
 31
0.0
  0
LINE
  8
0
 62
     0
 10
173.196
 20
82.2798
 30
0.0
 11
173.352
 21
82.2868
 31
0.0
  0
LINE
  8
0
 62
     0
 10
173.352
 20
82.2868
 30
0.0
 11
173.507
 21
82.3048
 31
0.0
  0
LINE
  8
0
 62
     0
 10
173.507
 20
82.3048
 30
0.0
 11
173.662
 21
82.3366
 31
0.0
  0
LINE
  8
0
 62
     0
 10
173.662
 20
82.3366
 30
0.0
 11
173.813
 21
82.3778
 31
0.0
  0
LINE
  8
0
 62
     0
 10
173.813
 20
82.3778
 30
0.0
 11
173.961
 21
82.4329
 31
0.0
  0
LINE
  8
0
 62
     0
 10
173.961
 20
82.4329
 30
0.0
 11
174.103
 21
82.4978
 31
0.0
  0
LINE
  8
0
 62
     0
 10
174.103
 20
82.4978
 30
0.0
 11
174.239
 21
82.5747
 31
0.0
  0
LINE
  8
0
 62
     0
 10
174.239
 20
82.5747
 30
0.0
 11
174.37
 21
82.6615
 31
0.0
  0
LINE
  8
0
 62
     0
 10
174.37
 20
82.6615
 30
0.0
 11
174.494
 21
82.7595
 31
0.0
  0
LINE
  8
0
 62
     0
 10
174.494
 20
82.7595
 30
0.0
 11
174.61
 21
82.8657
 31
0.0
  0
LINE
  8
0
 62
     0
 10
174.61
 20
82.8657
 30
0.0
 11
174.716
 21
82.9815
 31
0.0
  0
LINE
  8
0
 62
     0
 10
174.716
 20
82.9815
 30
0.0
 11
174.814
 21
83.1053
 31
0.0
  0
LINE
  8
0
 62
     0
 10
174.814
 20
83.1053
 30
0.0
 11
174.901
 21
83.2362
 31
0.0
  0
LINE
  8
0
 62
     0
 10
174.901
 20
83.2362
 30
0.0
 11
174.978
 21
83.3727
 31
0.0
  0
LINE
  8
0
 62
     0
 10
174.978
 20
83.3727
 30
0.0
 11
175.043
 21
83.5145
 31
0.0
  0
LINE
  8
0
 62
     0
 10
175.043
 20
83.5145
 30
0.0
 11
175.098
 21
83.662
 31
0.0
  0
LINE
  8
0
 62
     0
 10
175.098
 20
83.662
 30
0.0
 11
175.14
 21
83.8137
 31
0.0
  0
LINE
  8
0
 62
     0
 10
175.14
 20
83.8137
 30
0.0
 11
175.171
 21
83.9682
 31
0.0
  0
LINE
  8
0
 62
     0
 10
175.171
 20
83.9682
 30
0.0
 11
175.189
 21
84.1237
 31
0.0
  0
LINE
  8
0
 62
     0
 10
175.189
 20
84.1237
 30
0.0
 11
175.195
 21
84.2793
 31
0.0
  0
LINE
  8
0
 62
     0
 10
175.195
 20
84.2793
 30
0.0
 11
175.189
 21
84.4367
 31
0.0
  0
LINE
  8
0
 62
     0
 10
175.189
 20
84.4367
 30
0.0
 11
175.171
 21
84.5922
 31
0.0
  0
LINE
  8
0
 62
     0
 10
175.171
 20
84.5922
 30
0.0
 11
175.14
 21
84.7467
 31
0.0
  0
LINE
  8
0
 62
     0
 10
175.14
 20
84.7467
 30
0.0
 11
175.098
 21
84.8981
 31
0.0
  0
LINE
  8
0
 62
     0
 10
175.098
 20
84.8981
 30
0.0
 11
175.043
 21
85.0456
 31
0.0
  0
LINE
  8
0
 62
     0
 10
175.043
 20
85.0456
 30
0.0
 11
174.978
 21
85.1877
 31
0.0
  0
LINE
  8
0
 62
     0
 10
174.978
 20
85.1877
 30
0.0
 11
174.901
 21
85.3253
 31
0.0
  0
LINE
  8
0
 62
     0
 10
174.901
 20
85.3253
 30
0.0
 11
174.814
 21
85.4562
 31
0.0
  0
LINE
  8
0
 62
     0
 10
174.814
 20
85.4562
 30
0.0
 11
174.716
 21
85.5789
 31
0.0
  0
LINE
  8
0
 62
     0
 10
174.716
 20
85.5789
 30
0.0
 11
174.61
 21
85.6947
 31
0.0
  0
LINE
  8
0
 62
     0
 10
174.61
 20
85.6947
 30
0.0
 11
174.494
 21
85.8008
 31
0.0
  0
LINE
  8
0
 62
     0
 10
174.494
 20
85.8008
 30
0.0
 11
174.37
 21
85.8986
 31
0.0
  0
LINE
  8
0
 62
     0
 10
174.37
 20
85.8986
 30
0.0
 11
174.239
 21
85.9854
 31
0.0
  0
LINE
  8
0
 62
     0
 10
174.239
 20
85.9854
 30
0.0
 11
174.103
 21
86.0626
 31
0.0
  0
LINE
  8
0
 62
     0
 10
174.103
 20
86.0626
 30
0.0
 11
173.961
 21
86.1275
 31
0.0
  0
LINE
  8
0
 62
     0
 10
173.961
 20
86.1275
 30
0.0
 11
173.813
 21
86.1826
 31
0.0
  0
LINE
  8
0
 62
     0
 10
173.813
 20
86.1826
 30
0.0
 11
173.662
 21
86.2252
 31
0.0
  0
LINE
  8
0
 62
     0
 10
173.662
 20
86.2252
 30
0.0
 11
173.507
 21
86.2556
 31
0.0
  0
LINE
  8
0
 62
     0
 10
173.507
 20
86.2556
 30
0.0
 11
173.352
 21
86.275
 31
0.0
  0
LINE
  8
0
 62
     0
 10
173.352
 20
86.275
 30
0.0
 11
173.196
 21
86.2803
 31
0.0
  0
LINE
  8
0
 62
     0
 10
173.196
 20
86.2803
 30
0.0
 11
173.039
 21
86.275
 31
0.0
  0
ENDSEC
  0
EOF
